<svg width="100" height="100" viewBox="0 0 100 100" fill="none" xmlns="http://www.w3.org/2000/svg">
<path d="M70.6431 82.0567C70.6431 82.2463 70.4894 82.4 70.2998 82.4H66.8013C66.6116 82.4 66.4579 82.2463 66.4579 82.0567C66.4579 81.8671 66.6116 81.7134 66.8013 81.7134H70.2998C70.4894 81.7134 70.6431 81.8671 70.6431 82.0567ZM62.2811 82.0653C62.2765 82.2515 62.1242 82.4 61.9379 82.4H58.4274C58.2378 82.4 58.0841 82.2463 58.0841 82.0567C58.0841 81.8671 58.2378 81.7134 58.4274 81.7134H61.9379C62.1309 81.7134 62.2859 81.8724 62.2811 82.0653ZM53.8989 82.0567C53.8989 82.2463 53.7452 82.4 53.5556 82.4H50.0571C49.8674 82.4 49.7137 82.2463 49.7137 82.0567C49.7137 81.8671 49.8674 81.7134 50.0571 81.7134H53.5556C53.7452 81.7134 53.8989 81.8671 53.8989 82.0567ZM45.5319 82.0601C45.5301 82.2484 45.3769 82.4 45.1886 82.4H41.6901C41.5005 82.4 41.3468 82.2463 41.3468 82.0567C41.3468 81.8671 41.5005 81.7134 41.6901 81.7134H45.1886C45.3796 81.7134 45.5338 81.8692 45.5319 82.0601ZM37.1547 82.0567C37.1547 82.2463 37.001 82.4 36.8114 82.4H33.3129C33.1232 82.4 32.9695 82.2463 32.9695 82.0567C32.9695 81.8671 33.1232 81.7134 33.3129 81.7134H36.8114C37.001 81.7134 37.1547 81.8671 37.1547 82.0567ZM28.7843 82.0567C28.7843 82.2463 28.6306 82.4 28.441 82.4H24.939C24.7494 82.4 24.5957 82.2463 24.5957 82.0567C24.5957 81.8671 24.7494 81.7134 24.939 81.7134H28.441C28.6306 81.7134 28.7843 81.8671 28.7843 82.0567Z" fill="#1A2027"/>
<path d="M18.6867 75.4647C18.6867 75.6544 18.5329 75.8081 18.3433 75.8081C18.1537 75.8081 18 75.6544 18 75.4647V71.9662C18 71.7766 18.1537 71.6229 18.3433 71.6229C18.5329 71.6229 18.6867 71.7766 18.6867 71.9662V75.4647ZM18.6867 67.0944C18.6867 67.284 18.5329 67.4377 18.3433 67.4377C18.1537 67.4377 18 67.284 18 67.0944V63.5958C18 63.4062 18.1537 63.2525 18.3433 63.2525C18.5329 63.2525 18.6867 63.4062 18.6867 63.5958V67.0944ZM18.6867 58.7205C18.6867 58.9102 18.5329 59.0639 18.3433 59.0639C18.1537 59.0639 18 58.9102 18 58.7205V55.222C18 55.0324 18.1537 54.8787 18.3433 54.8787C18.5329 54.8787 18.6867 55.0324 18.6867 55.222V58.7205ZM18.6867 50.3639C18.6867 50.5535 18.5329 50.7072 18.3433 50.7072C18.1537 50.7072 18 50.5535 18 50.3639V46.8516C18 46.662 18.1537 46.5083 18.3433 46.5083C18.5329 46.5083 18.6867 46.662 18.6867 46.8516V50.3639ZM18.6867 41.9901C18.6867 42.1797 18.5329 42.3334 18.3433 42.3334C18.1537 42.3334 18 42.1797 18 41.9901V38.4778C18 38.2882 18.1537 38.1345 18.3433 38.1345C18.5329 38.1345 18.6867 38.2882 18.6867 38.4778V41.9901ZM18.6867 33.6197C18.6867 33.8093 18.5329 33.963 18.3433 33.963C18.1537 33.963 18 33.8093 18 33.6197V30.1074C18 29.9178 18.1537 29.7641 18.3433 29.7641C18.5329 29.7641 18.6867 29.9178 18.6867 30.1074V33.6197Z" fill="#1A2027"/>
<path d="M18.6935 25.2322C18.6935 25.4218 18.5398 25.5756 18.3502 25.5756C18.1605 25.5756 18.0068 25.4218 18.0068 25.2322V24.3739C18.0068 23.7102 18.5448 23.1722 19.2085 23.1722H20.0668C20.2564 23.1722 20.4101 23.326 20.4101 23.5156C20.4101 23.7052 20.2564 23.8589 20.0668 23.8589H19.5518C19.0778 23.8589 18.6935 24.2432 18.6935 24.7172V25.2322Z" fill="#1A2027"/>
<path d="M20.06 81.7167C20.2496 81.7167 20.4033 81.8704 20.4033 82.06C20.4033 82.2496 20.2496 82.4033 20.06 82.4033L19.2017 82.4033C18.538 82.4033 18 81.8653 18 81.2017L18 80.3433C18 80.1537 18.1537 80 18.3433 80C18.5329 80 18.6867 80.1537 18.6867 80.3433L18.6867 80.8583C18.6867 81.3324 19.0709 81.7167 19.545 81.7167L20.06 81.7167Z" fill="#1A2027"/>
<path d="M76.7167 80.3433C76.7167 80.1537 76.8704 80 77.06 80C77.2496 80 77.4033 80.1537 77.4033 80.3433L77.4033 81.2017C77.4033 81.8653 76.8653 82.4033 76.2017 82.4033L75.3433 82.4033C75.1537 82.4033 75 82.2496 75 82.06C75 81.8704 75.1537 81.7167 75.3433 81.7167L75.8583 81.7167C76.3324 81.7167 76.7167 81.3324 76.7167 80.8583L76.7167 80.3433Z" fill="#1A2027"/>
<path d="M70.6426 23.519C70.6426 23.7086 70.4889 23.8623 70.2993 23.8623H66.8008C66.6111 23.8623 66.4574 23.7086 66.4574 23.519C66.4574 23.3294 66.6111 23.1757 66.8008 23.1757H70.2993C70.4889 23.1757 70.6426 23.3294 70.6426 23.519ZM62.2806 23.5276C62.2759 23.7138 62.1237 23.8623 61.9374 23.8623H58.4269C58.2373 23.8623 58.0836 23.7086 58.0836 23.519C58.0836 23.3294 58.2373 23.1757 58.4269 23.1757H61.9374C62.1304 23.1757 62.2854 23.3347 62.2806 23.5276ZM53.8984 23.519C53.8984 23.7086 53.7447 23.8623 53.5551 23.8623H50.0565C49.8669 23.8623 49.7132 23.7086 49.7132 23.519C49.7132 23.3294 49.8669 23.1757 50.0565 23.1757H53.5551C53.7447 23.1757 53.8984 23.3294 53.8984 23.519ZM45.5314 23.5224C45.5295 23.7107 45.3764 23.8623 45.1881 23.8623H41.6896C41.5 23.8623 41.3463 23.7086 41.3463 23.519C41.3463 23.3294 41.5 23.1757 41.6896 23.1757H45.1881C45.3791 23.1757 45.5333 23.3315 45.5314 23.5224ZM37.1542 23.519C37.1542 23.7086 37.0005 23.8623 36.8109 23.8623H33.3123C33.1227 23.8623 32.969 23.7086 32.969 23.519C32.969 23.3294 33.1227 23.1757 33.3123 23.1757H36.8109C37.0005 23.1757 37.1542 23.3294 37.1542 23.519ZM28.7838 23.519C28.7838 23.7086 28.6301 23.8623 28.4405 23.8623H24.942C24.7523 23.8623 24.5986 23.7086 24.5986 23.519C24.5986 23.3294 24.7523 23.1757 24.942 23.1757H28.4405C28.6301 23.1757 28.7838 23.3294 28.7838 23.519Z" fill="#1A2027"/>
<path d="M77.2316 75.4647C77.2316 75.6544 77.0779 75.8081 76.8883 75.8081C76.6986 75.8081 76.5449 75.6544 76.5449 75.4647V71.9662C76.5449 71.7766 76.6986 71.6229 76.8883 71.6229C77.0779 71.6229 77.2316 71.7766 77.2316 71.9662V75.4647ZM77.2316 67.0944C77.2316 67.284 77.0779 67.4377 76.8883 67.4377C76.6986 67.4377 76.5449 67.284 76.5449 67.0944V63.5958C76.5449 63.4062 76.6986 63.2525 76.8883 63.2525C77.0779 63.2525 77.2316 63.4062 77.2316 63.5958V67.0944ZM77.2316 58.7205C77.2316 58.9102 77.0779 59.0639 76.8883 59.0639C76.6986 59.0639 76.5449 58.9102 76.5449 58.7205V55.222C76.5449 55.0324 76.6986 54.8787 76.8883 54.8787C77.0779 54.8787 77.2316 55.0324 77.2316 55.222V58.7205ZM77.2316 50.3502C77.2316 50.5398 77.0779 50.6935 76.8883 50.6935C76.6986 50.6935 76.5449 50.5398 76.5449 50.3502V46.8516C76.5449 46.662 76.6986 46.5083 76.8883 46.5083C77.0779 46.5083 77.2316 46.662 77.2316 46.8516V50.3502ZM77.2316 41.9763C77.2316 42.166 77.0779 42.3197 76.8883 42.3197C76.6986 42.3197 76.5449 42.166 76.5449 41.9763V38.4778C76.5449 38.2882 76.6986 38.1345 76.8883 38.1345C77.0779 38.1345 77.2316 38.2882 77.2316 38.4778V41.9763ZM77.2316 33.606C77.2316 33.7956 77.0779 33.9493 76.8883 33.9493C76.6986 33.9493 76.5449 33.7956 76.5449 33.606V30.1074C76.5449 29.9178 76.6986 29.7641 76.8883 29.7641C77.0779 29.7641 77.2316 29.9178 77.2316 30.1074V33.606Z" fill="#1A2027"/>
<path d="M44.4985 47.9971C46.4307 47.9971 47.9971 46.4307 47.9971 44.4985C47.9971 42.5663 46.4307 41 44.4985 41C42.5663 41 41 42.5663 41 44.4985C41 46.4307 42.5663 47.9971 44.4985 47.9971Z" fill="rgba(147, 51, 234, 1)"/>
<path d="M67.4017 71.3997V58L59 47.5L46 60L36.5 55.5L27.8467 63V71.3997H67.4017Z" fill="rgba(147, 51, 234, 1)"/>
<path d="M75.5 13.7188C73.1699 13.7188 70.8921 14.4097 68.9547 15.7042C67.0173 16.9988 65.5072 18.8388 64.6155 20.9915C63.7239 23.1443 63.4905 25.5131 63.9451 27.7984C64.3997 30.0837 65.5218 32.183 67.1694 33.8306C68.817 35.4782 70.9163 36.6003 73.2016 37.0549C75.4869 37.5095 77.8558 37.2761 80.0085 36.3845C82.1612 35.4928 84.0012 33.9827 85.2958 32.0453C86.5903 30.1079 87.2813 27.8301 87.2813 25.5C87.2783 22.3763 86.0361 19.3815 83.8273 17.1727C81.6185 14.9639 78.6237 13.7217 75.5 13.7188ZM80.0313 26.4062H76.4063V30.0312C76.4063 30.2716 76.3108 30.5021 76.1408 30.6721C75.9709 30.842 75.7404 30.9375 75.5 30.9375C75.2597 30.9375 75.0291 30.842 74.8592 30.6721C74.6892 30.5021 74.5938 30.2716 74.5938 30.0312V26.4062H70.9688C70.7284 26.4062 70.4979 26.3108 70.3279 26.1408C70.158 25.9709 70.0625 25.7404 70.0625 25.5C70.0625 25.2596 70.158 25.0291 70.3279 24.8592C70.4979 24.6892 70.7284 24.5937 70.9688 24.5937H74.5938V20.9687C74.5938 20.7284 74.6892 20.4979 74.8592 20.3279C75.0291 20.158 75.2597 20.0625 75.5 20.0625C75.7404 20.0625 75.9709 20.158 76.1408 20.3279C76.3108 20.4979 76.4063 20.7284 76.4063 20.9687V24.5937H80.0313C80.2716 24.5937 80.5021 24.6892 80.6721 24.8592C80.842 25.0291 80.9375 25.2596 80.9375 25.5C80.9375 25.7404 80.842 25.9709 80.6721 26.1408C80.5021 26.3108 80.2716 26.4062 80.0313 26.4062Z" fill="rgba(147, 51, 234, 1)"/>
</svg>
