<?xml version="1.0" standalone="no"?>
<!DOCTYPE svg PUBLIC "-//W3C//DTD SVG 20010904//EN"
 "http://www.w3.org/TR/2001/REC-SVG-20010904/DTD/svg10.dtd">
<svg version="1.0" xmlns="http://www.w3.org/2000/svg"
 width="512.000000pt" height="512.000000pt" viewBox="0 0 512.000000 512.000000"
 preserveAspectRatio="xMidYMid meet">

<g transform="translate(0.000000,512.000000) scale(0.100000,-0.100000)"
fill="#000000" stroke="none">
<path d="M1637 4866 c-89 -32 -158 -103 -188 -193 -17 -54 -7 -160 21 -216 24
-47 90 -117 110 -117 18 0 11 -24 -65 -236 -76 -211 -85 -250 -63 -272 16 -16
73 -15 87 1 6 8 26 56 45 108 l34 94 611 3 611 2 0 -144 c0 -90 4 -155 12
-171 15 -33 51 -42 83 -21 l25 16 0 200 c0 167 -2 201 -16 214 -8 9 -16 17
-17 18 -1 1 -286 5 -633 8 l-632 5 25 68 25 67 43 0 c52 0 154 49 190 92 103
122 98 293 -11 402 -76 76 -201 106 -297 72z m174 -132 c90 -46 111 -173 42
-255 -119 -142 -352 3 -279 174 38 90 148 127 237 81z"/>
<path d="M3764 4192 c-136 -66 -198 -218 -148 -365 17 -50 83 -132 114 -142
11 -4 20 -12 20 -18 0 -7 -34 -106 -75 -220 -75 -209 -85 -253 -63 -275 16
-16 73 -15 86 1 6 7 28 62 50 122 l39 110 561 3 562 2 0 -603 c0 -572 1 -605
18 -620 26 -24 68 -21 86 5 14 20 16 99 16 660 0 625 0 638 -20 658 -20 20
-33 20 -599 20 l-580 0 18 53 18 52 56 7 c101 13 189 76 231 167 29 64 29 178
0 242 -47 101 -137 160 -254 166 -67 4 -81 1 -136 -25z m196 -114 c73 -38 107
-108 90 -185 -12 -51 -39 -84 -90 -110 -56 -29 -96 -29 -150 0 -103 54 -119
189 -33 270 54 50 116 58 183 25z"/>
<path d="M140 4153 c-8 -3 -23 -12 -32 -21 -17 -14 -18 -90 -18 -1322 0 -1253
1 -1308 18 -1323 16 -15 54 -17 325 -17 330 0 337 1 337 54 0 55 -3 56 -290
58 l-265 3 -3 1228 -2 1227 539 0 c585 0 571 -1 571 53 0 30 -11 44 -43 56
-29 11 -1107 15 -1137 4z"/>
<path d="M2390 3510 c-20 -20 -20 -33 -20 -1215 0 -1188 0 -1195 20 -1215 21
-21 27 -21 958 -18 l937 3 65 32 c36 18 77 45 92 60 50 53 578 768 585 792 9
37 -31 65 -155 105 -198 64 -380 92 -443 68 -40 -16 -88 -61 -110 -104 -19
-37 -20 -55 -17 -278 3 -256 4 -259 55 -275 17 -4 29 1 48 19 l25 25 -7 224
-6 225 27 27 c26 26 31 27 94 21 65 -6 290 -58 317 -73 10 -6 -51 -95 -231
-338 -135 -182 -261 -344 -280 -361 -19 -18 -55 -37 -79 -43 -30 -8 -309 -11
-909 -11 l-866 0 0 1115 0 1115 483 0 c456 0 485 1 500 18 23 25 21 58 -3 82
-19 19 -33 20 -540 20 -507 0 -521 -1 -540 -20z"/>
<path d="M1016 2829 l-26 -20 0 -1330 c0 -1342 0 -1359 34 -1381 6 -4 637 -8
1401 -8 1243 0 1393 2 1413 16 l22 15 0 373 c0 411 2 400 -62 394 -56 -5 -58
-18 -58 -365 l0 -313 -1315 0 -1315 0 2 1258 3 1257 513 5 c559 5 532 2 532
62 0 59 8 58 -581 58 -527 0 -537 0 -563 -21z"/>
<path d="M3192 2834 c-26 -18 -30 -65 -6 -88 14 -14 84 -16 619 -16 664 0 635
-3 635 60 0 61 16 60 -635 60 -518 0 -593 -2 -613 -16z"/>
<path d="M2857 2403 c-25 -29 -26 -63 -1 -87 14 -14 80 -16 575 -16 546 0 559
0 579 20 11 11 20 29 20 40 0 11 -9 29 -20 40 -20 20 -33 20 -578 20 -520 0
-560 -1 -575 -17z"/>
<path d="M2856 1974 c-25 -24 -24 -58 1 -86 15 -17 55 -18 575 -18 545 0 558
0 578 20 11 11 20 29 20 40 0 11 -9 29 -20 40 -20 20 -33 20 -579 20 -495 0
-561 -2 -575 -16z"/>
</g>
</svg>
