<svg width="100" height="100" viewBox="0 0 100 100" fill="none" xmlns="http://www.w3.org/2000/svg">
<path d="M83 43.0249H16V58.0249H83V43.0249Z" fill="white"/>
<path d="M82.9674 58.7475H16.4169C16.3063 58.7475 16.2003 58.7038 16.1221 58.6259C16.044 58.548 16 58.4424 16 58.3322V43.4153C16 43.3051 16.044 43.1995 16.1221 43.1216C16.2003 43.0438 16.3063 43 16.4169 43H82.9674C83.078 43 83.1841 43.0438 83.2622 43.1216C83.3404 43.1995 83.3843 43.3051 83.3843 43.4153V58.3654C83.3759 58.4697 83.3283 58.567 83.251 58.6378C83.1738 58.7087 83.0725 58.7478 82.9674 58.7475ZM16.8338 57.9169H82.5505V43.8638H16.8338V57.9169Z" fill="#1A2027"/>
<path d="M82.9675 63.083H16.417V77.9667H82.9675V63.083Z" fill="rgba(147, 51, 234, 1)"/>
<path d="M82.9675 78.382H16.417C16.3064 78.382 16.2004 78.3383 16.1222 78.2604C16.044 78.1825 16.0001 78.0769 16.0001 77.9667V63.083C15.999 63.0278 16.0089 62.9729 16.0294 62.9215C16.0499 62.8702 16.0804 62.8234 16.1192 62.784C16.158 62.7445 16.2044 62.7132 16.2555 62.6918C16.3066 62.6704 16.3615 62.6594 16.417 62.6594H82.9675C83.023 62.6594 83.0779 62.6704 83.129 62.6918C83.1801 62.7132 83.2264 62.7445 83.2653 62.784C83.3041 62.8234 83.3346 62.8702 83.3551 62.9215C83.3755 62.9729 83.3855 63.0278 83.3844 63.083V77.9667C83.3844 78.0769 83.3405 78.1825 83.2623 78.2604C83.1841 78.3383 83.0781 78.382 82.9675 78.382ZM16.8339 77.5515H82.5506V63.4983H16.8339V77.5515Z" fill="#1A2027"/>
<path d="M22.2536 50.7408C22.2486 50.3768 22.3525 50.0195 22.5519 49.7144C22.7513 49.4092 23.0374 49.1701 23.3736 49.0274C23.7099 48.8846 24.0811 48.8447 24.4402 48.9127C24.7993 48.9806 25.1299 49.1535 25.3901 49.4091C25.6503 49.6648 25.8284 49.9918 25.9015 50.3486C25.9747 50.7053 25.9397 51.0756 25.801 51.4125C25.6623 51.7493 25.4261 52.0375 25.1226 52.2403C24.819 52.4431 24.4618 52.5514 24.0963 52.5515C23.6119 52.5515 23.1469 52.3615 22.8021 52.0227C22.4572 51.6838 22.2602 51.2233 22.2536 50.7408Z" fill="white"/>
<path d="M24.0961 52.9916C23.6468 52.9933 23.2072 52.862 22.833 52.6144C22.4587 52.3668 22.1668 52.014 21.9941 51.6009C21.8214 51.1877 21.7757 50.7328 21.863 50.2938C21.9502 49.8548 22.1664 49.4515 22.4841 49.1351C22.8018 48.8186 23.2066 48.6033 23.6473 48.5164C24.088 48.4295 24.5447 48.4749 24.9595 48.6469C25.3742 48.819 25.7283 49.1098 25.9769 49.4826C26.2254 49.8554 26.3573 50.2933 26.3557 50.7408C26.3535 51.3371 26.1147 51.9083 25.6914 52.33C25.2681 52.7516 24.6947 52.9895 24.0961 52.9916ZM24.0961 49.3205C23.8141 49.3205 23.5384 49.4039 23.304 49.5599C23.0695 49.716 22.8867 49.9378 22.7788 50.1973C22.6709 50.4568 22.6427 50.7424 22.6977 51.0179C22.7527 51.2934 22.8885 51.5465 23.0879 51.7451C23.2873 51.9437 23.5413 52.079 23.8179 52.1338C24.0945 52.1886 24.3812 52.1605 24.6417 52.053C24.9022 51.9455 25.1249 51.7634 25.2816 51.5299C25.4382 51.2963 25.5219 51.0217 25.5219 50.7408C25.523 50.554 25.4868 50.3688 25.4156 50.196C25.3443 50.0232 25.2393 49.8662 25.1067 49.7341C24.9741 49.602 24.8165 49.4974 24.643 49.4264C24.4695 49.3554 24.2836 49.3194 24.0961 49.3205Z" fill="#1A2027"/>
<path d="M22.2536 50.7408C22.2486 50.3768 22.3525 50.0195 22.5519 49.7144C22.7513 49.4092 23.0374 49.1701 23.3736 49.0274C23.7099 48.8846 24.0811 48.8447 24.4402 48.9127C24.7993 48.9806 25.1299 49.1535 25.3901 49.4091C25.6503 49.6648 25.8284 49.9918 25.9015 50.3486C25.9747 50.7053 25.9397 51.0756 25.801 51.4125C25.6623 51.7493 25.4261 52.0375 25.1226 52.2403C24.819 52.4431 24.4618 52.5514 24.0963 52.5515C23.6119 52.5515 23.1469 52.3615 22.8021 52.0227C22.4572 51.6838 22.2602 51.2233 22.2536 50.7408Z" fill="white"/>
<path d="M24.0961 52.9916C23.6468 52.9933 23.2072 52.862 22.833 52.6144C22.4587 52.3668 22.1668 52.014 21.9941 51.6009C21.8214 51.1877 21.7757 50.7328 21.863 50.2938C21.9502 49.8548 22.1664 49.4515 22.4841 49.1351C22.8018 48.8186 23.2066 48.6033 23.6473 48.5164C24.088 48.4295 24.5447 48.4749 24.9595 48.6469C25.3742 48.819 25.7283 49.1098 25.9769 49.4826C26.2254 49.8554 26.3573 50.2933 26.3557 50.7408C26.3535 51.3371 26.1147 51.9083 25.6914 52.33C25.2681 52.7516 24.6947 52.9895 24.0961 52.9916ZM24.0961 49.3205C23.8141 49.3205 23.5384 49.4039 23.304 49.5599C23.0695 49.716 22.8867 49.9378 22.7788 50.1973C22.6709 50.4568 22.6427 50.7424 22.6977 51.0179C22.7527 51.2934 22.8885 51.5465 23.0879 51.7451C23.2873 51.9437 23.5413 52.079 23.8179 52.1338C24.0945 52.1886 24.3812 52.1605 24.6417 52.053C24.9022 51.9455 25.1249 51.7634 25.2816 51.5299C25.4382 51.2963 25.5219 51.0217 25.5219 50.7408C25.523 50.554 25.4868 50.3688 25.4156 50.196C25.3443 50.0232 25.2393 49.8662 25.1067 49.7341C24.9741 49.602 24.8165 49.4974 24.643 49.4264C24.4695 49.3554 24.2836 49.3194 24.0961 49.3205Z" fill="#1A2027"/>
<path d="M22.2534 70.5249C22.2534 70.1618 22.3615 69.807 22.564 69.5051C22.7665 69.2033 23.0543 68.968 23.391 68.8291C23.7277 68.6901 24.0982 68.6538 24.4556 68.7246C24.813 68.7954 25.1414 68.9703 25.3991 69.227C25.6568 69.4837 25.8323 69.8107 25.9034 70.1668C25.9745 70.5228 25.938 70.8919 25.7985 71.2273C25.659 71.5627 25.4229 71.8494 25.1198 72.0511C24.8168 72.2528 24.4606 72.3604 24.0961 72.3604C23.6074 72.3604 23.1387 72.1671 22.7932 71.8228C22.4476 71.4786 22.2534 71.0117 22.2534 70.5249Z" fill="white"/>
<path d="M24.0961 72.7757C23.6468 72.7774 23.2072 72.646 22.833 72.3984C22.4587 72.1508 22.1668 71.7981 21.9941 71.3849C21.8214 70.9718 21.7757 70.5169 21.863 70.0779C21.9502 69.6389 22.1664 69.2356 22.4841 68.9191C22.8018 68.6027 23.2066 68.3874 23.6473 68.3005C24.088 68.2135 24.5447 68.259 24.9595 68.431C25.3742 68.603 25.7283 68.8939 25.9769 69.2666C26.2254 69.6394 26.3573 70.0774 26.3557 70.5249C26.3557 70.8205 26.2972 71.1132 26.1836 71.3862C26.0701 71.6593 25.9036 71.9074 25.6938 72.1165C25.484 72.3255 25.2349 72.4913 24.9607 72.6044C24.6866 72.7175 24.3928 72.7757 24.0961 72.7757ZM24.0961 69.1046C23.8141 69.1046 23.5384 69.1879 23.304 69.344C23.0695 69.5 22.8867 69.7218 22.7788 69.9814C22.6709 70.2409 22.6427 70.5265 22.6977 70.802C22.7527 71.0775 22.8885 71.3305 23.0879 71.5292C23.2873 71.7278 23.5413 71.863 23.8179 71.9179C24.0945 71.9727 24.3812 71.9445 24.6417 71.837C24.9022 71.7295 25.1249 71.5475 25.2816 71.3139C25.4382 71.0804 25.5219 70.8058 25.5219 70.5249C25.5219 70.3384 25.485 70.1537 25.4133 69.9814C25.3417 69.8091 25.2367 69.6525 25.1043 69.5206C24.9719 69.3887 24.8147 69.2841 24.6417 69.2127C24.4687 69.1413 24.2833 69.1046 24.0961 69.1046Z" fill="#1A2027"/>
<path d="M83 22.7225H16V37.7225H83V22.7225Z" fill="white"/>
<path d="M82.9675 37.7226H16.417C16.3615 37.7226 16.3066 37.7116 16.2555 37.6902C16.2044 37.6688 16.158 37.6375 16.1192 37.598C16.0804 37.5586 16.0499 37.5118 16.0294 37.4605C16.0089 37.4091 15.999 37.3542 16.0001 37.299V22.4153C16.0001 22.3051 16.044 22.1995 16.1222 22.1216C16.2004 22.0437 16.3064 22 16.417 22H82.9675C83.0781 22 83.1841 22.0437 83.2623 22.1216C83.3405 22.1995 83.3844 22.3051 83.3844 22.4153V37.299C83.3855 37.3542 83.3755 37.4091 83.3551 37.4605C83.3346 37.5118 83.3041 37.5586 83.2653 37.598C83.2264 37.6375 83.1801 37.6688 83.129 37.6902C83.0779 37.7116 83.023 37.7226 82.9675 37.7226ZM16.8339 36.892H82.5506V22.8306H16.8339V36.892Z" fill="#1A2027"/>
<path d="M22.2534 29.857C22.2534 29.494 22.3615 29.1391 22.564 28.8373C22.7665 28.5354 23.0543 28.3001 23.391 28.1612C23.7277 28.0223 24.0982 27.9859 24.4556 28.0568C24.813 28.1276 25.1414 28.3024 25.3991 28.5591C25.6568 28.8158 25.8323 29.1429 25.9034 29.4989C25.9745 29.855 25.938 30.2241 25.7985 30.5595C25.659 30.8949 25.4229 31.1816 25.1198 31.3832C24.8168 31.5849 24.4606 31.6926 24.0961 31.6926C23.6074 31.6926 23.1387 31.4992 22.7932 31.155C22.4476 30.8107 22.2534 30.3439 22.2534 29.857Z" fill="white"/>
<path d="M24.0961 32.1163C23.6472 32.1179 23.2079 31.9868 22.8338 31.7396C22.4598 31.4924 22.1678 31.1401 21.9949 30.7275C21.8219 30.3148 21.7758 29.8603 21.8624 29.4215C21.949 28.9827 22.1643 28.5794 22.4811 28.2627C22.798 27.9459 23.2021 27.7299 23.6422 27.642C24.0824 27.5542 24.5388 27.5984 24.9537 27.7692C25.3686 27.9399 25.7233 28.2295 25.9729 28.6012C26.2224 28.9729 26.3557 29.41 26.3557 29.8571C26.3557 30.4549 26.1179 31.0282 25.6943 31.4517C25.2708 31.8751 24.6961 32.1141 24.0961 32.1163ZM24.0961 28.4369C23.8141 28.4369 23.5384 28.5202 23.304 28.6762C23.0695 28.8323 22.8867 29.0541 22.7788 29.3136C22.6709 29.5732 22.6427 29.8587 22.6977 30.1342C22.7527 30.4097 22.8885 30.6628 23.0879 30.8614C23.2873 31.0601 23.5413 31.1953 23.8179 31.2501C24.0945 31.3049 24.3812 31.2768 24.6417 31.1693C24.9023 31.0618 25.1249 30.8798 25.2816 30.6462C25.4382 30.4126 25.5219 30.138 25.5219 29.8571C25.5219 29.6706 25.485 29.4859 25.4133 29.3136C25.3417 29.1413 25.2367 28.9847 25.1043 28.8529C24.9719 28.721 24.8147 28.6164 24.6417 28.545C24.4687 28.4736 24.2833 28.4369 24.0961 28.4369Z" fill="#1A2027"/>
<path d="M22.1867 36.0946C22.1572 36.1062 22.1244 36.1062 22.0949 36.0946C22.0807 36.0821 22.0694 36.0668 22.0616 36.0496C22.0538 36.0324 22.0498 36.0138 22.0498 35.9949C22.0498 35.9761 22.0538 35.9574 22.0616 35.9403C22.0694 35.9231 22.0807 35.9077 22.0949 35.8953C25.0549 32.9468 29.1572 28.3205 33.0843 23.5365C33.0968 23.5237 33.1116 23.5135 33.1281 23.5065C33.1446 23.4996 33.1623 23.496 33.1802 23.496C33.1981 23.496 33.2158 23.4996 33.2323 23.5065C33.2488 23.5135 33.2637 23.5237 33.2761 23.5365C33.3007 23.5639 33.3143 23.5994 33.3143 23.6361C33.3143 23.6729 33.3007 23.7084 33.2761 23.7358C29.3489 28.5282 25.23 33.1627 22.2617 36.1195C22.2347 36.119 22.2086 36.1103 22.1867 36.0946Z" fill="#1A2027"/>
<path d="M19.0935 35.8704C19.0633 35.8772 19.032 35.8772 19.0018 35.8704C18.9753 35.844 18.9604 35.8081 18.9604 35.7708C18.9604 35.7334 18.9753 35.6976 19.0018 35.6711L21.77 32.5066C21.7966 32.4803 21.8326 32.4655 21.8701 32.4655C21.9076 32.4655 21.9435 32.4803 21.9701 32.5066C21.983 32.519 21.9932 32.5339 22.0002 32.5503C22.0072 32.5667 22.0108 32.5843 22.0108 32.6022C22.0108 32.62 22.0072 32.6376 22.0002 32.654C21.9932 32.6704 21.983 32.6853 21.9701 32.6977L19.1936 35.8621C19.1626 35.8778 19.1267 35.8807 19.0935 35.8704Z" fill="#1A2027"/>
<path d="M26.1887 27.7557C26.1588 27.7647 26.1269 27.7647 26.097 27.7557C26.0706 27.7293 26.0557 27.6934 26.0557 27.6561C26.0557 27.6187 26.0706 27.5828 26.097 27.5564L29.624 23.5697C29.6364 23.5569 29.6513 23.5467 29.6678 23.5397C29.6842 23.5328 29.7019 23.5292 29.7198 23.5292C29.7377 23.5292 29.7554 23.5328 29.7719 23.5397C29.7884 23.5467 29.8033 23.5569 29.8157 23.5697C29.8422 23.5961 29.8571 23.632 29.8571 23.6693C29.8571 23.7067 29.8422 23.7425 29.8157 23.769L26.2888 27.7557C26.2567 27.7687 26.2208 27.7687 26.1887 27.7557Z" fill="#1A2027"/>
<path d="M17.6344 33.6278C17.6075 33.6381 17.5779 33.6381 17.551 33.6278C17.527 33.6018 17.5137 33.5677 17.5137 33.5323C17.5137 33.4969 17.527 33.4628 17.551 33.4368C20.2608 30.0398 23.1207 26.6926 26.0556 23.47C26.0822 23.4436 26.1182 23.4288 26.1557 23.4288C26.1932 23.4288 26.2292 23.4436 26.2558 23.47C26.2804 23.4974 26.294 23.5329 26.294 23.5697C26.294 23.6065 26.2804 23.6419 26.2558 23.6693C23.3209 26.867 20.4692 30.2059 17.7678 33.6361C17.7462 33.644 17.7232 33.6473 17.7002 33.6459C17.6773 33.6444 17.6548 33.6383 17.6344 33.6278Z" fill="#1A2027"/>
<path d="M17.7761 29.2591C17.7492 29.2693 17.7196 29.2693 17.6927 29.2591C17.6787 29.2474 17.6674 29.2328 17.6597 29.2163C17.652 29.1998 17.6479 29.1818 17.6479 29.1636C17.6479 29.1454 17.652 29.1274 17.6597 29.1109C17.6674 29.0944 17.6787 29.0798 17.6927 29.0681C19.2102 27.2658 20.8111 25.4966 22.4537 23.794C22.4654 23.78 22.4801 23.7688 22.4966 23.7611C22.5132 23.7534 22.5313 23.7494 22.5496 23.7494C22.5679 23.7494 22.5859 23.7534 22.6024 23.7611C22.619 23.7688 22.6337 23.78 22.6455 23.794C22.6583 23.8064 22.6685 23.8212 22.6755 23.8376C22.6825 23.854 22.6861 23.8717 22.6861 23.8895C22.6861 23.9073 22.6825 23.925 22.6755 23.9414C22.6685 23.9578 22.6583 23.9726 22.6455 23.985C20.9779 25.6462 19.4103 27.4485 17.8928 29.2425C17.876 29.254 17.8566 29.2615 17.8364 29.2644C17.8162 29.2672 17.7955 29.2654 17.7761 29.2591Z" fill="#1A2027"/>
<path d="M17.7258 25.6544C17.6885 25.6535 17.6528 25.6387 17.6258 25.6129C17.5993 25.5864 17.5845 25.5506 17.5845 25.5132C17.5845 25.4759 17.5993 25.44 17.6258 25.4135L19.7186 23.3953C19.7456 23.3714 19.7808 23.3586 19.8169 23.3597C19.8531 23.3607 19.8875 23.3755 19.913 23.401C19.9386 23.4264 19.9534 23.4607 19.9544 23.4967C19.9555 23.5327 19.9427 23.5677 19.9187 23.5946L17.8176 25.6129C17.7927 25.6368 17.7603 25.6515 17.7258 25.6544Z" fill="#1A2027"/>
<path d="M25.2551 36.0946C25.2252 36.1031 25.1934 36.1031 25.1634 36.0946C25.137 36.0681 25.1221 36.0323 25.1221 35.9949C25.1221 35.9576 25.137 35.9217 25.1634 35.8953C28.6737 31.7424 32.3174 27.5896 36.0027 23.5448C36.0152 23.532 36.03 23.5218 36.0465 23.5148C36.063 23.5079 36.0807 23.5043 36.0986 23.5043C36.1165 23.5043 36.1342 23.5079 36.1507 23.5148C36.1671 23.5218 36.182 23.532 36.1945 23.5448C36.221 23.5712 36.2358 23.6071 36.2358 23.6444C36.2358 23.6818 36.221 23.7176 36.1945 23.7441C32.5175 27.764 28.8738 31.9169 25.3552 36.078C25.3253 36.0964 25.2894 36.1024 25.2551 36.0946Z" fill="#1A2027"/>
<path d="M28.5234 35.9867C28.4966 35.9969 28.4669 35.9969 28.4401 35.9867C28.4155 35.9593 28.4019 35.9238 28.4019 35.887C28.4019 35.8503 28.4155 35.8148 28.4401 35.7874C31.8586 31.6844 35.4189 27.6063 39.0292 23.6445C39.0416 23.6317 39.0565 23.6215 39.073 23.6145C39.0895 23.6076 39.1072 23.604 39.1251 23.604C39.143 23.604 39.1607 23.6076 39.1772 23.6145C39.1936 23.6215 39.2085 23.6317 39.221 23.6445C39.2352 23.657 39.2465 23.6723 39.2543 23.6895C39.2621 23.7067 39.2661 23.7253 39.2661 23.7442C39.2661 23.763 39.2621 23.7817 39.2543 23.7988C39.2465 23.816 39.2352 23.8314 39.221 23.8438C35.619 27.7973 32.0671 31.8754 28.6485 35.9784C28.63 35.9899 28.6088 35.9966 28.587 35.9981C28.5652 35.9995 28.5434 35.9956 28.5234 35.9867Z" fill="#1A2027"/>
<path d="M47.1216 36.1762C47.0947 36.1864 47.0651 36.1864 47.0382 36.1762C47.0136 36.1487 47 36.1133 47 36.0765C47 36.0397 47.0136 36.0042 47.0382 35.9768C50.4568 31.8738 54.017 27.7958 57.6273 23.834C57.6398 23.8212 57.6547 23.811 57.6711 23.804C57.6876 23.797 57.7054 23.7935 57.7232 23.7935C57.7411 23.7935 57.7588 23.797 57.7753 23.804C57.7918 23.811 57.8067 23.8212 57.8191 23.834C57.8333 23.8464 57.8447 23.8618 57.8525 23.879C57.8602 23.8961 57.8643 23.9148 57.8643 23.9336C57.8643 23.9525 57.8602 23.9711 57.8525 23.9883C57.8447 24.0055 57.8333 24.0208 57.8191 24.0333C54.2171 27.9868 50.6652 32.0648 47.2467 36.1678C47.2281 36.1793 47.2069 36.1861 47.1851 36.1875C47.1633 36.189 47.1415 36.1851 47.1216 36.1762Z" fill="#1A2027"/>
<path d="M31.7085 36.0946C31.6791 36.1062 31.6463 36.1062 31.6168 36.0946C31.604 36.0822 31.5937 36.0674 31.5868 36.051C31.5798 36.0345 31.5762 36.0169 31.5762 35.9991C31.5762 35.9813 31.5798 35.9636 31.5868 35.9472C31.5937 35.9308 31.604 35.916 31.6168 35.9036L41.8724 23.8936C41.899 23.8672 41.935 23.8524 41.9725 23.8524C42.01 23.8524 42.046 23.8672 42.0725 23.8936C42.0966 23.9197 42.1099 23.9537 42.1099 23.9891C42.1099 24.0245 42.0966 24.0586 42.0725 24.0846L31.8169 36.1029C31.7808 36.1117 31.7429 36.1087 31.7085 36.0946Z" fill="#1A2027"/>
<path d="M50.3067 36.284C50.2772 36.2956 50.2444 36.2956 50.215 36.284C50.2021 36.2717 50.1919 36.2568 50.1849 36.2404C50.1779 36.224 50.1743 36.2064 50.1743 36.1885C50.1743 36.1707 50.1779 36.1531 50.1849 36.1367C50.1919 36.1203 50.2021 36.1054 50.215 36.093L60.4706 24.0831C60.4972 24.0567 60.5331 24.0419 60.5706 24.0419C60.6081 24.0419 60.6441 24.0567 60.6707 24.0831C60.6947 24.1091 60.708 24.1432 60.708 24.1786C60.708 24.2139 60.6947 24.248 60.6707 24.2741L50.4151 36.2924C50.379 36.3011 50.341 36.2982 50.3067 36.284Z" fill="#1A2027"/>
<path d="M34.7517 36.0947C34.7218 36.1032 34.6899 36.1032 34.66 36.0947C34.6335 36.0682 34.6187 36.0324 34.6187 35.995C34.6187 35.9576 34.6335 35.9218 34.66 35.8953C38.0535 31.7425 41.5721 27.5897 45.1157 23.5781C45.1283 23.5639 45.1436 23.5526 45.1609 23.5448C45.1781 23.5371 45.1969 23.5331 45.2158 23.5331C45.2347 23.5331 45.2534 23.5371 45.2707 23.5448C45.2879 23.5526 45.3033 23.5639 45.3158 23.5781C45.3287 23.5905 45.3389 23.6053 45.3459 23.6217C45.3529 23.6381 45.3565 23.6558 45.3565 23.6736C45.3565 23.6914 45.3529 23.7091 45.3459 23.7255C45.3389 23.7419 45.3287 23.7567 45.3158 23.7691C41.7722 27.7973 38.262 31.9336 34.8684 36.0781C34.8515 36.0896 34.8323 36.097 34.812 36.0999C34.7918 36.1028 34.7712 36.101 34.7517 36.0947Z" fill="#1A2027"/>
<path d="M53.3499 36.2841C53.3199 36.2927 53.2881 36.2927 53.2581 36.2841C53.2316 36.2577 53.2168 36.2218 53.2168 36.1845C53.2168 36.1471 53.2316 36.1113 53.2581 36.0848C56.6516 31.932 60.1703 27.7792 63.7139 23.7675C63.7264 23.7534 63.7418 23.7421 63.759 23.7343C63.7763 23.7265 63.795 23.7225 63.8139 23.7225C63.8329 23.7225 63.8515 23.7265 63.8688 23.7343C63.886 23.7421 63.9015 23.7534 63.914 23.7675C63.9268 23.7799 63.9371 23.7948 63.9441 23.8112C63.951 23.8276 63.9546 23.8452 63.9546 23.863C63.9546 23.8809 63.951 23.8985 63.9441 23.9149C63.9371 23.9313 63.9268 23.9462 63.914 23.9586C60.3704 27.9868 56.8601 32.123 53.4666 36.2675C53.4497 36.279 53.4304 36.2865 53.4102 36.2894C53.3899 36.2923 53.3693 36.2905 53.3499 36.2841Z" fill="#1A2027"/>
<path d="M37.6618 36.0946C37.6347 36.103 37.6056 36.103 37.5784 36.0946C37.552 36.0682 37.5371 36.0323 37.5371 35.995C37.5371 35.9576 37.552 35.9218 37.5784 35.8953C40.9136 31.8006 44.3488 27.7309 47.8424 23.794C47.8528 23.7758 47.8672 23.7601 47.8845 23.7481C47.9017 23.7362 47.9214 23.7281 47.9422 23.7247C47.9629 23.7213 47.9842 23.7225 48.0044 23.7282C48.0247 23.734 48.0433 23.7441 48.0591 23.758C48.0749 23.7718 48.0875 23.789 48.0958 23.8083C48.1041 23.8275 48.108 23.8484 48.1072 23.8693C48.1064 23.8903 48.1009 23.9108 48.0911 23.9293C48.0814 23.9479 48.0676 23.9641 48.0508 23.9767C44.5573 27.9053 41.1054 31.975 37.7952 36.0697C37.7773 36.0854 37.7554 36.096 37.732 36.1004C37.7085 36.1047 37.6843 36.1028 37.6618 36.0946Z" fill="#1A2027"/>
<path d="M56.26 36.2841C56.2328 36.2924 56.2037 36.2924 56.1766 36.2841C56.1501 36.2576 56.1353 36.2218 56.1353 36.1844C56.1353 36.1471 56.1501 36.1112 56.1766 36.0848C59.5117 31.9901 62.947 27.9203 66.4405 23.9834C66.451 23.9652 66.4654 23.9496 66.4826 23.9376C66.4999 23.9256 66.5196 23.9176 66.5403 23.9142C66.5611 23.9107 66.5823 23.9119 66.6026 23.9177C66.6228 23.9234 66.6415 23.9336 66.6573 23.9474C66.6731 23.9613 66.6856 23.9785 66.6939 23.9977C66.7022 24.017 66.7061 24.0378 66.7053 24.0588C66.7045 24.0797 66.699 24.1002 66.6893 24.1188C66.6796 24.1374 66.6658 24.1535 66.649 24.1662C63.1554 28.0947 59.7035 32.1645 56.3934 36.2592C56.3754 36.2748 56.3536 36.2854 56.3301 36.2898C56.3066 36.2942 56.2824 36.2922 56.26 36.2841Z" fill="#1A2027"/>
<path d="M40.7721 35.9866C40.7398 35.9987 40.7043 35.9987 40.672 35.9866C40.6591 35.9742 40.6489 35.9594 40.6419 35.943C40.6349 35.9266 40.6313 35.9089 40.6313 35.8911C40.6313 35.8733 40.6349 35.8556 40.6419 35.8392C40.6489 35.8228 40.6591 35.808 40.672 35.7956C44.2156 31.9085 47.6675 27.8471 50.936 23.7275C50.9581 23.6988 50.9907 23.6801 51.0267 23.6755C51.0626 23.6708 51.099 23.6805 51.1277 23.7026C51.1565 23.7246 51.1752 23.7571 51.1799 23.7929C51.1846 23.8287 51.1749 23.865 51.1528 23.8936C47.8843 28.0464 44.4241 32.0913 40.8805 35.9783C40.864 35.9872 40.8458 35.9925 40.8271 35.994C40.8084 35.9954 40.7897 35.9929 40.7721 35.9866Z" fill="#1A2027"/>
<path d="M59.3702 36.1761C59.338 36.1882 59.3024 36.1882 59.2702 36.1761C59.2573 36.1637 59.2471 36.1488 59.2401 36.1324C59.2331 36.116 59.2295 36.0984 59.2295 36.0806C59.2295 36.0627 59.2331 36.0451 59.2401 36.0287C59.2471 36.0123 59.2573 35.9974 59.2702 35.985C62.8138 32.098 66.2657 28.0365 69.5341 23.9169C69.5562 23.8883 69.5888 23.8696 69.6248 23.8649C69.6608 23.8602 69.6971 23.87 69.7259 23.892C69.7546 23.914 69.7734 23.9465 69.7781 23.9824C69.7828 24.0182 69.773 24.0544 69.7509 24.083C66.4824 28.2359 63.0222 32.2807 59.4786 36.1678C59.4621 36.1766 59.4439 36.182 59.4253 36.1834C59.4066 36.1848 59.3878 36.1823 59.3702 36.1761Z" fill="#1A2027"/>
<path d="M43.6735 35.8703C43.6461 35.877 43.6175 35.877 43.5902 35.8703C43.5637 35.8439 43.5488 35.808 43.5488 35.7707C43.5488 35.7333 43.5637 35.6975 43.5902 35.671L53.062 24.6245C53.0744 24.6117 53.0893 24.6015 53.1058 24.5945C53.1223 24.5876 53.14 24.584 53.1579 24.584C53.1758 24.584 53.1935 24.5876 53.21 24.5945C53.2265 24.6015 53.2413 24.6117 53.2538 24.6245C53.2802 24.6509 53.2951 24.6868 53.2951 24.7242C53.2951 24.7615 53.2802 24.7974 53.2538 24.8238L43.7819 35.8703C43.7648 35.8779 43.7464 35.8818 43.7277 35.8818C43.709 35.8818 43.6906 35.8779 43.6735 35.8703Z" fill="#1A2027"/>
<path d="M62.2717 36.0598C62.2443 36.0665 62.2157 36.0665 62.1883 36.0598C62.1618 36.0333 62.147 35.9975 62.147 35.9601C62.147 35.9227 62.1618 35.8869 62.1883 35.8604L71.6601 24.8139C71.6726 24.8011 71.6875 24.7909 71.704 24.784C71.7204 24.777 71.7381 24.7734 71.756 24.7734C71.7739 24.7734 71.7917 24.777 71.8081 24.784C71.8246 24.7909 71.8395 24.8011 71.8519 24.8139C71.8784 24.8404 71.8933 24.8762 71.8933 24.9136C71.8933 24.951 71.8784 24.9868 71.8519 25.0133L62.3801 36.0598C62.363 36.0673 62.3445 36.0712 62.3259 36.0712C62.3072 36.0712 62.2887 36.0673 62.2717 36.0598Z" fill="#1A2027"/>
<path d="M66.133 35.9801C66.1036 35.9917 66.0708 35.9917 66.0413 35.9801C66.0148 35.9536 66 35.9178 66 35.8804C66 35.843 66.0148 35.8072 66.0413 35.7807L75.263 24.8256C75.2751 24.8114 75.2898 24.7997 75.3064 24.7912C75.323 24.7827 75.3411 24.7775 75.3596 24.776C75.3782 24.7745 75.3969 24.7766 75.4147 24.7822C75.4325 24.7879 75.4489 24.797 75.4631 24.809C75.4774 24.821 75.4891 24.8357 75.4976 24.8522C75.5062 24.8687 75.5114 24.8867 75.5129 24.9052C75.5145 24.9237 75.5123 24.9424 75.5067 24.96C75.501 24.9777 75.4919 24.9941 75.4798 25.0083L66.2414 35.9303C66.2277 35.9455 66.2111 35.9578 66.1924 35.9664C66.1738 35.9749 66.1536 35.9796 66.133 35.9801Z" fill="#1A2027"/>
<path d="M69.4265 35.98C69.3965 35.9881 69.3649 35.9881 69.3348 35.98C69.3084 35.9536 69.2935 35.9177 69.2935 35.8803C69.2935 35.843 69.3084 35.8071 69.3348 35.7807C72.4699 32.2591 75.5049 28.5548 78.3564 24.7757C78.3674 24.7615 78.381 24.7496 78.3966 24.7407C78.4122 24.7318 78.4293 24.726 78.4471 24.7237C78.4649 24.7214 78.483 24.7226 78.5004 24.7272C78.5177 24.7319 78.534 24.7399 78.5482 24.7508C78.5624 24.7617 78.5744 24.7753 78.5833 24.7908C78.5923 24.8063 78.5981 24.8234 78.6004 24.8411C78.6027 24.8589 78.6015 24.8769 78.5969 24.8942C78.5922 24.9114 78.5841 24.9276 78.5732 24.9418C75.7216 28.7292 72.6783 32.4169 69.5433 35.9634C69.5264 35.9749 69.5071 35.9824 69.4868 35.9853C69.4666 35.9881 69.446 35.9864 69.4265 35.98Z" fill="#1A2027"/>
<path d="M72.4117 35.98C72.3848 35.9902 72.3551 35.9902 72.3283 35.98C72.3154 35.9676 72.3052 35.9528 72.2982 35.9364C72.2912 35.92 72.2876 35.9023 72.2876 35.8845C72.2876 35.8667 72.2912 35.849 72.2982 35.8326C72.3052 35.8162 72.3154 35.8014 72.3283 35.789C75.1298 32.1262 78.1648 28.5465 81.2331 25.1495C81.2597 25.1231 81.2957 25.1083 81.3332 25.1083C81.3707 25.1083 81.4067 25.1231 81.4333 25.1495C81.4579 25.1769 81.4715 25.2124 81.4715 25.2491C81.4715 25.2859 81.4579 25.3214 81.4333 25.3488C78.3316 28.7375 75.3382 32.3089 72.5367 35.9634C72.5192 35.977 72.4984 35.9857 72.4765 35.9886C72.4545 35.9915 72.4321 35.9885 72.4117 35.98Z" fill="#1A2027"/>
<path d="M75.0881 35.8638C75.0607 35.8705 75.0321 35.8705 75.0047 35.8638C74.9782 35.8374 74.9634 35.8015 74.9634 35.7642C74.9634 35.7268 74.9782 35.691 75.0047 35.6645L80.9163 28.8123C80.9287 28.7995 80.9436 28.7894 80.9601 28.7824C80.9765 28.7754 80.9943 28.7719 81.0122 28.7719C81.0301 28.7719 81.0478 28.7754 81.0642 28.7824C81.0807 28.7894 81.0956 28.7995 81.1081 28.8123C81.1345 28.8388 81.1494 28.8746 81.1494 28.912C81.1494 28.9494 81.1345 28.9852 81.1081 29.0117L75.1965 35.8638C75.1794 35.8714 75.1609 35.8753 75.1423 35.8753C75.1236 35.8753 75.1051 35.8714 75.0881 35.8638Z" fill="#1A2027"/>
<path d="M77.6809 35.9801C77.6513 35.9909 77.6188 35.9909 77.5892 35.9801C77.5751 35.9684 77.5639 35.9538 77.5561 35.9373C77.5484 35.9208 77.5444 35.9028 77.5444 35.8846C77.5444 35.8664 77.5484 35.8484 77.5561 35.8319C77.5639 35.8154 77.5751 35.8008 77.5892 35.7891L80.8243 32.201C80.8504 32.1771 80.8846 32.1638 80.9202 32.1638C80.9557 32.1638 80.9899 32.1771 81.0161 32.201C81.0426 32.2275 81.0574 32.2633 81.0574 32.3007C81.0574 32.3381 81.0426 32.3739 81.0161 32.4004L77.7643 35.9303C77.7428 35.9556 77.7135 35.9732 77.6809 35.9801Z" fill="#1A2027"/>
<path d="M80.4577 35.9801C80.4277 35.9882 80.3961 35.9882 80.366 35.9801C80.3396 35.9536 80.3247 35.9178 80.3247 35.8804C80.3247 35.843 80.3396 35.8072 80.366 35.7807L81.1998 34.8505C81.2116 34.8365 81.2263 34.8253 81.2428 34.8176C81.2594 34.8099 81.2774 34.8059 81.2957 34.8059C81.314 34.8059 81.3321 34.8099 81.3486 34.8176C81.3652 34.8253 81.3798 34.8365 81.3916 34.8505C81.4044 34.8629 81.4147 34.8777 81.4217 34.8941C81.4286 34.9105 81.4322 34.9282 81.4322 34.946C81.4322 34.9638 81.4286 34.9815 81.4217 34.9979C81.4147 35.0143 81.4044 35.0291 81.3916 35.0415L80.5578 35.9718C80.5268 35.9874 80.4909 35.9904 80.4577 35.9801Z" fill="#1A2027"/>
</svg>
