<svg width="100" height="100" viewBox="0 0 100 100" fill="none" xmlns="http://www.w3.org/2000/svg">
<path d="M50.0936 54.5938C44.4228 60.2647 38.5282 66.4928 29.5163 66.4928C20.1747 66.4928 13.5044 59.5975 13.5044 50.0362C13.5777 40.8032 21.1741 33.4618 30.4058 33.6319C38.6341 33.6319 44.7563 40.1373 50.0936 45.4759C55.7645 39.8038 61.6591 33.6319 70.671 33.6319C80.1237 33.6319 86.6829 40.4722 86.6829 50.0362C86.6096 59.2692 79.0131 66.7152 69.7814 66.5452C61.5531 66.5452 55.4309 59.9298 50.0936 54.5925V54.5938ZM45.6459 50.0885C41.3093 46.0855 36.7491 40.2485 30.3012 40.2485C27.7071 40.252 25.2202 41.284 23.3859 43.1183C21.5516 44.9526 20.5196 47.4395 20.5161 50.0336C20.248 55.414 24.5819 59.9547 29.9689 59.8736C36.3056 59.8736 41.4205 54.4238 45.6406 50.0885H45.6459ZM79.6711 50.0336C79.7346 48.7599 79.5361 47.4867 79.0879 46.2929C78.6396 45.099 77.9512 44.0098 77.0652 43.0926C76.1792 42.1754 75.1144 41.4498 73.9367 40.9606C72.759 40.4714 71.4935 40.2291 70.2184 40.2485C63.879 40.2485 58.7641 45.697 54.5335 50.0336C58.8701 54.0365 63.429 59.8736 69.8782 59.8736C75.2796 59.867 79.658 55.435 79.6659 50.0336H79.6711Z" fill="#007FFF"/>
<path d="M50.094 45.5283C55.7648 39.8561 61.6594 33.6293 70.6713 33.6293C80.1241 33.6293 86.6832 40.5246 86.6832 50.0859C86.6099 59.3189 79.0134 66.7126 69.7818 66.5426C63.2331 66.5426 58.0214 62.3852 53.469 57.9977M50.0926 54.6436C44.4218 60.3144 38.5272 66.5426 29.5153 66.5426C20.1737 66.5426 13.5034 59.6473 13.5034 50.0859C13.5767 40.8529 21.1732 33.4592 30.4048 33.6293C36.9718 33.6293 42.194 37.8075 46.7438 42.2082M42.1966 46.754C38.8137 43.4797 35.071 40.3022 30.2897 40.3022C27.6956 40.3057 25.2088 41.3377 23.3745 43.172C21.5402 45.0063 20.5081 47.4931 20.5047 50.0872C20.4412 51.3609 20.6397 52.6341 21.0879 53.8279C21.5362 55.0218 22.2246 56.111 23.1106 57.0282C23.9966 57.9454 25.0614 58.671 26.2391 59.1602C27.4168 59.6494 28.6824 59.8917 29.9575 59.8723C36.2942 59.8723 41.4091 54.4225 45.6292 50.0872M57.9272 53.3851C61.3206 56.6725 65.0724 59.8723 69.8694 59.8723C72.4637 59.8688 74.9509 58.8369 76.7856 57.0026C78.6203 55.1684 79.6529 52.6816 79.6571 50.0872C79.7206 48.8136 79.5221 47.5404 79.0738 46.3465C78.6256 45.1527 77.9372 44.0634 77.0511 43.1463C76.1651 42.2291 75.1003 41.5035 73.9226 41.0143C72.7449 40.5251 71.4794 40.2827 70.2043 40.3022C63.865 40.3022 58.75 45.7507 54.5195 50.0872" stroke="#1A2027" stroke-linecap="round"/>
<path d="M45.646 50.0938L50.0937 45.5283ZM50.0937 54.6593L54.5415 50.0938Z" fill="#1A2027"/>
<path d="M45.646 50.0938L50.0937 45.5283M50.0937 54.6593L54.5415 50.0938" stroke="#1A2027" stroke-linecap="round" stroke-linejoin="round"/>
</svg>
