<svg width="100" height="100" viewBox="0 0 100 100" fill="none" xmlns="http://www.w3.org/2000/svg">
<path d="M65.6 65.4C68.5 65.1 70.7 62.6 70.6 59.6C70.5 56.6 68 54.2 65 54.2H64.8C61.7 54.3 59.3 56.9 59.4 60C59.5 61.5 60.1 62.8 61 63.7C57.6 70.4 52.4 75.3 44.6 79.4C39.3 82.2 33.8 83.2 28.3 82.5C23.8 81.9 20.3 79.9 18.1 76.6C14.9 71.7 14.6 66.4 17.3 61.1C19.2 57.3 22.2 54.5 24.1 53.1C23.7 51.8 23.1 49.6 22.8 48C8.30001 58.5 9.80001 72.7 14.2 79.4C17.5 84.4 24.2 87.5 31.6 87.5C33.6 87.5 35.6 87.3 37.6 86.8C50.4 84.3 60.1 76.7 65.6 65.4Z" fill="#764ABC"/>
<path d="M83.2 53.0002C75.6 44.1002 64.4 39.2002 51.6 39.2002H50C49.1 37.4002 47.2 36.2002 45.1 36.2002H44.9C41.8 36.3002 39.4 38.9002 39.5 42.0002C39.6 45.0002 42.1 47.4002 45.1 47.4002H45.3C47.5 47.3002 49.4 45.9002 50.2 44.0002H52C59.6 44.0002 66.8 46.2002 73.3 50.5002C78.3 53.8002 81.9 58.1002 83.9 63.3002C85.6 67.5002 85.5 71.6002 83.7 75.1002C80.9 80.4002 76.2 83.3002 70 83.3002C66 83.3002 62.2 82.1002 60.2 81.2002C59.1 82.2002 57.1 83.8002 55.7 84.8002C60 86.8002 64.4 87.9002 68.6 87.9002C78.2 87.9002 85.3 82.6002 88 77.3002C90.9 71.5002 90.7 61.5002 83.2 53.0002Z" fill="#764ABC"/>
<path d="M32.4 67.0998C32.5 70.0998 35 72.4998 38 72.4998H38.2C41.3 72.3998 43.7 69.7998 43.6 66.6998C43.5 63.6998 41 61.2998 38 61.2998H37.8C37.6 61.2998 37.3 61.2998 37.1 61.3998C33 54.5998 31.3 47.1998 31.9 39.1998C32.3 33.1998 34.3 27.9998 37.8 23.6998C40.7 19.9998 46.3 18.1998 50.1 18.0998C60.7 17.8998 65.2 31.0998 65.5 36.3998C66.8 36.6998 69 37.3998 70.5 37.8998C69.3 21.6998 59.3 13.2998 49.7 13.2998C40.7 13.2998 32.4 19.7998 29.1 29.3998C24.5 42.1998 27.5 54.4998 33.1 64.1998C32.6 64.8998 32.3 65.9998 32.4 67.0998Z" fill="#764ABC"/>
</svg>
