<svg width="100" height="100" viewBox="0 0 100 100" fill="none" xmlns="http://www.w3.org/2000/svg">
<g clip-path="url(#clip0_107_9545)">
<path d="M60.9675 61.6927H14.417V76.5764H60.9675V61.6927Z" fill="white"/>
<path d="M60.9675 77H14.417C14.3615 77 14.3066 76.989 14.2555 76.9676C14.2044 76.9462 14.158 76.9149 14.1192 76.8754C14.0804 76.836 14.0499 76.7892 14.0294 76.7379C14.0089 76.6865 13.999 76.6316 14.0001 76.5764V61.6927C14.0001 61.5825 14.044 61.4769 14.1222 61.399C14.2004 61.3212 14.3064 61.2774 14.417 61.2774H60.9675C61.0781 61.2774 61.1841 61.3212 61.2623 61.399C61.3405 61.4769 61.3844 61.5825 61.3844 61.6927V76.5764C61.3855 76.6316 61.3755 76.6865 61.3551 76.7379C61.3346 76.7892 61.3041 76.836 61.2653 76.8754C61.2264 76.9149 61.1801 76.9462 61.129 76.9676C61.0779 76.989 61.023 77 60.9675 77ZM14.8339 76.1694H60.5506V62.108H14.8339V76.1694Z" fill="#1A2027"/>
<path d="M60.9675 22.4153H14.417V37.299H60.9675V22.4153Z" fill="white"/>
<path d="M60.9674 37.7226H14.4169C14.3063 37.7226 14.2003 37.6789 14.1221 37.601C14.044 37.5231 14 37.4175 14 37.3073V22.3904C14 22.2802 14.044 22.1746 14.1221 22.0967C14.2003 22.0189 14.3063 21.9751 14.4169 21.9751H60.9674C61.078 21.9751 61.1841 22.0189 61.2622 22.0967C61.3404 22.1746 61.3843 22.2802 61.3843 22.3904V37.3405C61.3759 37.4448 61.3283 37.5421 61.251 37.6129C61.1738 37.6838 61.0725 37.7229 60.9674 37.7226V37.7226ZM14.8338 36.892H60.5505V22.8389H14.8338V36.892Z" fill="#1A2027"/>
<path d="M60.9675 42.0582H14.417V56.9419H60.9675V42.0582Z" fill="rgba(147, 51, 234, 1)"/>
<path d="M60.9675 57.3571H14.417C14.3064 57.3571 14.2004 57.3134 14.1222 57.2355C14.044 57.1576 14.0001 57.052 14.0001 56.9418V42.0581C13.999 42.0029 14.0089 41.948 14.0294 41.8966C14.0499 41.8453 14.0804 41.7985 14.1192 41.7591C14.158 41.7196 14.2044 41.6883 14.2555 41.6669C14.3066 41.6455 14.3615 41.6345 14.417 41.6345H60.9675C61.023 41.6345 61.0779 41.6455 61.129 41.6669C61.1801 41.6883 61.2264 41.7196 61.2653 41.7591C61.3041 41.7985 61.3346 41.8453 61.3551 41.8966C61.3755 41.948 61.3855 42.0029 61.3844 42.0581V56.9418C61.3844 57.052 61.3405 57.1576 61.2623 57.2355C61.1841 57.3134 61.0781 57.3571 60.9675 57.3571ZM14.8339 56.5266H60.5506V42.4734H14.8339V56.5266Z" fill="#1A2027"/>
<path d="M20.2536 29.7159C20.2486 29.3519 20.3525 28.9946 20.5519 28.6895C20.7513 28.3843 21.0374 28.1452 21.3736 28.0024C21.7099 27.8597 22.0811 27.8198 22.4402 27.8878C22.7993 27.9557 23.1299 28.1286 23.3901 28.3842C23.6503 28.6399 23.8284 28.9669 23.9015 29.3237C23.9747 29.6804 23.9397 30.0507 23.801 30.3876C23.6623 30.7244 23.4261 31.0126 23.1226 31.2154C22.819 31.4182 22.4618 31.5265 22.0963 31.5266C21.6119 31.5266 21.1469 31.3366 20.8021 30.9978C20.4572 30.6589 20.2602 30.1984 20.2536 29.7159V29.7159Z" fill="white"/>
<path d="M22.0961 31.9668C21.6468 31.9684 21.2072 31.8371 20.833 31.5895C20.4587 31.3419 20.1668 30.9892 19.9941 30.576C19.8214 30.1629 19.7757 29.708 19.863 29.269C19.9502 28.83 20.1664 28.4267 20.4841 28.1102C20.8018 27.7938 21.2066 27.5785 21.6473 27.4916C22.088 27.4046 22.5447 27.4501 22.9595 27.6221C23.3742 27.7941 23.7283 28.085 23.9769 28.4577C24.2254 28.8305 24.3573 29.2685 24.3557 29.716C24.3535 30.3123 24.1147 30.8835 23.6914 31.3051C23.2681 31.7268 22.6947 31.9646 22.0961 31.9668ZM22.0961 28.2957C21.8141 28.2957 21.5384 28.379 21.304 28.5351C21.0695 28.6911 20.8867 28.9129 20.7788 29.1725C20.6709 29.432 20.6427 29.7176 20.6977 29.9931C20.7527 30.2686 20.8885 30.5216 21.0879 30.7203C21.2873 30.9189 21.5413 31.0542 21.8179 31.109C22.0945 31.1638 22.3812 31.1356 22.6417 31.0281C22.9022 30.9206 23.1249 30.7386 23.2816 30.505C23.4382 30.2715 23.5219 29.9969 23.5219 29.716C23.523 29.5292 23.4868 29.344 23.4156 29.1712C23.3443 28.9983 23.2393 28.8413 23.1067 28.7092C22.9741 28.5771 22.8165 28.4726 22.643 28.4016C22.4695 28.3306 22.2836 28.2946 22.0961 28.2957V28.2957Z" fill="#1A2027"/>
<path d="M20.2536 29.7159C20.2486 29.3519 20.3525 28.9946 20.5519 28.6895C20.7513 28.3843 21.0374 28.1452 21.3736 28.0024C21.7099 27.8597 22.0811 27.8198 22.4402 27.8878C22.7993 27.9557 23.1299 28.1286 23.3901 28.3842C23.6503 28.6399 23.8284 28.9669 23.9015 29.3237C23.9747 29.6804 23.9397 30.0507 23.801 30.3876C23.6623 30.7244 23.4261 31.0126 23.1226 31.2154C22.819 31.4182 22.4618 31.5265 22.0963 31.5266C21.6119 31.5266 21.1469 31.3366 20.8021 30.9978C20.4572 30.6589 20.2602 30.1984 20.2536 29.7159V29.7159Z" fill="white"/>
<path d="M22.0961 31.9668C21.6468 31.9684 21.2072 31.8371 20.833 31.5895C20.4587 31.3419 20.1668 30.9892 19.9941 30.576C19.8214 30.1629 19.7757 29.708 19.863 29.269C19.9502 28.83 20.1664 28.4267 20.4841 28.1102C20.8018 27.7938 21.2066 27.5785 21.6473 27.4916C22.088 27.4046 22.5447 27.4501 22.9595 27.6221C23.3742 27.7941 23.7283 28.085 23.9769 28.4577C24.2254 28.8305 24.3573 29.2685 24.3557 29.716C24.3535 30.3123 24.1147 30.8835 23.6914 31.3051C23.2681 31.7268 22.6947 31.9646 22.0961 31.9668ZM22.0961 28.2957C21.8141 28.2957 21.5384 28.379 21.304 28.5351C21.0695 28.6911 20.8867 28.9129 20.7788 29.1725C20.6709 29.432 20.6427 29.7176 20.6977 29.9931C20.7527 30.2686 20.8885 30.5216 21.0879 30.7203C21.2873 30.9189 21.5413 31.0542 21.8179 31.109C22.0945 31.1638 22.3812 31.1356 22.6417 31.0281C22.9022 30.9206 23.1249 30.7386 23.2816 30.505C23.4382 30.2715 23.5219 29.9969 23.5219 29.716C23.523 29.5292 23.4868 29.344 23.4156 29.1712C23.3443 28.9983 23.2393 28.8413 23.1067 28.7092C22.9741 28.5771 22.8165 28.4726 22.643 28.4016C22.4695 28.3306 22.2836 28.2946 22.0961 28.2957V28.2957Z" fill="#1A2027"/>
<path d="M20.2534 49.5C20.2534 49.1369 20.3615 48.7821 20.564 48.4802C20.7665 48.1783 21.0543 47.9431 21.391 47.8042C21.7277 47.6652 22.0982 47.6289 22.4556 47.6997C22.813 47.7705 23.1414 47.9454 23.3991 48.2021C23.6568 48.4588 23.8323 48.7858 23.9034 49.1419C23.9745 49.4979 23.938 49.867 23.7985 50.2024C23.659 50.5378 23.4229 50.8245 23.1198 51.0262C22.8168 51.2279 22.4606 51.3355 22.0961 51.3355C21.6074 51.3355 21.1387 51.1421 20.7932 50.7979C20.4476 50.4537 20.2534 49.9868 20.2534 49.5Z" fill="white"/>
<path d="M22.0961 51.7508C21.6468 51.7525 21.2072 51.6211 20.833 51.3735C20.4587 51.1259 20.1668 50.7732 19.9941 50.36C19.8214 49.9469 19.7757 49.492 19.863 49.053C19.9502 48.614 20.1664 48.2107 20.4841 47.8942C20.8018 47.5778 21.2066 47.3625 21.6473 47.2756C22.088 47.1886 22.5447 47.2341 22.9595 47.4061C23.3742 47.5781 23.7283 47.869 23.9769 48.2417C24.2254 48.6145 24.3573 49.0525 24.3557 49.5C24.3557 49.7956 24.2972 50.0883 24.1836 50.3613C24.0701 50.6344 23.9036 50.8825 23.6938 51.0916C23.484 51.3006 23.2349 51.4664 22.9607 51.5795C22.6866 51.6926 22.3928 51.7508 22.0961 51.7508V51.7508ZM22.0961 48.0797C21.8141 48.0797 21.5384 48.163 21.304 48.3191C21.0695 48.4751 20.8867 48.6969 20.7788 48.9565C20.6709 49.216 20.6427 49.5015 20.6977 49.7771C20.7527 50.0526 20.8885 50.3056 21.0879 50.5043C21.2873 50.7029 21.5413 50.8381 21.8179 50.8929C22.0945 50.9477 22.3812 50.9196 22.6417 50.8121C22.9022 50.7046 23.1249 50.5226 23.2816 50.289C23.4382 50.0555 23.5219 49.7809 23.5219 49.5C23.5219 49.3135 23.485 49.1288 23.4133 48.9565C23.3417 48.7841 23.2367 48.6276 23.1043 48.4957C22.9719 48.3638 22.8147 48.2592 22.6417 48.1878C22.4687 48.1164 22.2833 48.0797 22.0961 48.0797V48.0797Z" fill="#1A2027"/>
<path d="M20.2534 69.1346C20.2534 68.7715 20.3615 68.4166 20.564 68.1148C20.7665 67.8129 21.0543 67.5777 21.391 67.4387C21.7277 67.2998 22.0982 67.2635 22.4556 67.3343C22.813 67.4051 23.1414 67.5799 23.3991 67.8366C23.6568 68.0933 23.8323 68.4204 23.9034 68.7765C23.9745 69.1325 23.938 69.5016 23.7985 69.837C23.659 70.1724 23.4229 70.4591 23.1198 70.6608C22.8168 70.8625 22.4606 70.9701 22.0961 70.9701C21.6074 70.9701 21.1387 70.7767 20.7932 70.4325C20.4476 70.0883 20.2534 69.6214 20.2534 69.1346Z" fill="white"/>
<path d="M22.0961 71.3937C21.6472 71.3953 21.2079 71.2642 20.8338 71.017C20.4598 70.7698 20.1678 70.4175 19.9949 70.0049C19.8219 69.5922 19.7758 69.1377 19.8624 68.6989C19.949 68.2601 20.1643 67.8568 20.4811 67.5401C20.798 67.2233 21.2021 67.0073 21.6422 66.9195C22.0824 66.8316 22.5388 66.8758 22.9537 67.0466C23.3686 67.2173 23.7233 67.5069 23.9729 67.8786C24.2224 68.2503 24.3557 68.6874 24.3557 69.1345C24.3557 69.7323 24.1179 70.3056 23.6943 70.7291C23.2708 71.1525 22.6961 71.3915 22.0961 71.3937V71.3937ZM22.0961 67.7143C21.8141 67.7143 21.5384 67.7976 21.304 67.9536C21.0695 68.1097 20.8867 68.3315 20.7788 68.591C20.6709 68.8506 20.6427 69.1361 20.6977 69.4116C20.7527 69.6871 20.8885 69.9402 21.0879 70.1388C21.2873 70.3375 21.5413 70.4727 21.8179 70.5275C22.0945 70.5823 22.3812 70.5542 22.6417 70.4467C22.9023 70.3392 23.1249 70.1572 23.2816 69.9236C23.4382 69.69 23.5219 69.4154 23.5219 69.1345C23.5219 68.948 23.485 68.7634 23.4133 68.591C23.3417 68.4187 23.2367 68.2622 23.1043 68.1303C22.9719 67.9984 22.8147 67.8938 22.6417 67.8224C22.4687 67.751 22.2833 67.7143 22.0961 67.7143V67.7143Z" fill="#1A2027"/>
<path d="M20.2534 69.1346C20.2534 68.7715 20.3615 68.4166 20.564 68.1148C20.7665 67.8129 21.0543 67.5777 21.391 67.4387C21.7277 67.2998 22.0982 67.2635 22.4556 67.3343C22.813 67.4051 23.1414 67.5799 23.3991 67.8366C23.6568 68.0933 23.8323 68.4204 23.9034 68.7765C23.9745 69.1325 23.938 69.5016 23.7985 69.837C23.659 70.1724 23.4229 70.4591 23.1198 70.6608C22.8168 70.8625 22.4606 70.9701 22.0961 70.9701C21.6074 70.9701 21.1387 70.7767 20.7932 70.4325C20.4476 70.0883 20.2534 69.6214 20.2534 69.1346Z" fill="white"/>
<path d="M22.0961 71.3937C21.6472 71.3953 21.2079 71.2642 20.8338 71.017C20.4598 70.7698 20.1678 70.4175 19.9949 70.0049C19.8219 69.5922 19.7758 69.1377 19.8624 68.6989C19.949 68.2601 20.1643 67.8568 20.4811 67.5401C20.798 67.2233 21.2021 67.0073 21.6422 66.9195C22.0824 66.8316 22.5388 66.8758 22.9537 67.0466C23.3686 67.2173 23.7233 67.5069 23.9729 67.8786C24.2224 68.2503 24.3557 68.6874 24.3557 69.1345C24.3557 69.7323 24.1179 70.3056 23.6943 70.7291C23.2708 71.1525 22.6961 71.3915 22.0961 71.3937V71.3937ZM22.0961 67.7143C21.8141 67.7143 21.5384 67.7976 21.304 67.9536C21.0695 68.1097 20.8867 68.3315 20.7788 68.591C20.6709 68.8506 20.6427 69.1361 20.6977 69.4116C20.7527 69.6871 20.8885 69.9402 21.0879 70.1388C21.2873 70.3375 21.5413 70.4727 21.8179 70.5275C22.0945 70.5823 22.3812 70.5542 22.6417 70.4467C22.9023 70.3392 23.1249 70.1572 23.2816 69.9236C23.4382 69.69 23.5219 69.4154 23.5219 69.1345C23.5219 68.948 23.485 68.7634 23.4133 68.591C23.3417 68.4187 23.2367 68.2622 23.1043 68.1303C22.9719 67.9984 22.8147 67.8938 22.6417 67.8224C22.4687 67.751 22.2833 67.7143 22.0961 67.7143V67.7143Z" fill="#1A2027"/>
<path d="M29.7085 49.5C29.7085 49.1369 29.8166 48.7821 30.019 48.4802C30.2215 48.1783 30.5093 47.9431 30.846 47.8042C31.1827 47.6652 31.5532 47.6289 31.9107 47.6997C32.2681 47.7705 32.5964 47.9454 32.8541 48.2021C33.1118 48.4588 33.2873 48.7858 33.3584 49.1419C33.4295 49.4979 33.393 49.867 33.2536 50.2024C33.1141 50.5378 32.8779 50.8245 32.5749 51.0262C32.2719 51.2279 31.9156 51.3355 31.5512 51.3355C31.3092 51.3355 31.0696 51.2881 30.846 51.1958C30.6224 51.1036 30.4193 50.9684 30.2482 50.7979C30.0771 50.6275 29.9414 50.4251 29.8488 50.2024C29.7561 49.9797 29.7085 49.741 29.7085 49.5V49.5Z" fill="white"/>
<path d="M31.5511 51.7508C31.1022 51.7508 30.6634 51.6181 30.2902 51.3695C29.9171 51.1209 29.6264 50.7676 29.455 50.3543C29.2836 49.941 29.2392 49.4863 29.3274 49.0479C29.4156 48.6094 29.6324 48.2069 29.9504 47.8913C30.2684 47.5757 30.6733 47.3612 31.1138 47.2749C31.5542 47.1887 32.0105 47.2346 32.4247 47.4069C32.839 47.5792 33.1926 47.87 33.4408 48.2426C33.689 48.6152 33.8206 49.0528 33.819 49.5C33.819 49.7963 33.7603 50.0896 33.6462 50.3633C33.5321 50.6369 33.365 50.8854 33.1543 51.0945C32.9436 51.3036 32.6934 51.4693 32.4183 51.5819C32.1432 51.6945 31.8485 51.7519 31.5511 51.7508V51.7508ZM31.5511 48.0797C31.2691 48.0797 30.9934 48.163 30.7589 48.3191C30.5245 48.4751 30.3418 48.697 30.2339 48.9565C30.1259 49.216 30.0977 49.5016 30.1527 49.7771C30.2077 50.0526 30.3435 50.3056 30.5429 50.5043C30.7423 50.7029 30.9964 50.8382 31.2729 50.893C31.5495 50.9478 31.8362 50.9196 32.0967 50.8121C32.3572 50.7046 32.5799 50.5226 32.7366 50.289C32.8933 50.0555 32.9769 49.7809 32.9769 49.5C32.9747 49.124 32.8238 48.764 32.5569 48.4981C32.2899 48.2322 31.9286 48.0819 31.5511 48.0797Z" fill="#1A2027"/>
<path d="M20.1867 75.3721C20.1572 75.3836 20.1244 75.3836 20.0949 75.3721C20.0807 75.3596 20.0694 75.3443 20.0616 75.3271C20.0538 75.3099 20.0498 75.2913 20.0498 75.2724C20.0498 75.2535 20.0538 75.2349 20.0616 75.2177C20.0694 75.2005 20.0807 75.1852 20.0949 75.1727C23.0549 72.2242 27.1572 67.598 31.0843 62.8139C31.0968 62.8011 31.1116 62.7909 31.1281 62.784C31.1446 62.777 31.1623 62.7734 31.1802 62.7734C31.1981 62.7734 31.2158 62.777 31.2323 62.784C31.2488 62.7909 31.2637 62.8011 31.2761 62.8139C31.3007 62.8413 31.3143 62.8768 31.3143 62.9136C31.3143 62.9504 31.3007 62.9859 31.2761 63.0133C27.3489 67.8056 23.23 72.4402 20.2617 75.397C20.2347 75.3964 20.2086 75.3877 20.1867 75.3721Z" fill="#1A2027"/>
<path d="M17.0935 75.1478C17.0633 75.1546 17.032 75.1546 17.0018 75.1478C16.9753 75.1214 16.9604 75.0855 16.9604 75.0482C16.9604 75.0108 16.9753 74.975 17.0018 74.9485L19.77 71.784C19.7966 71.7577 19.8326 71.7429 19.8701 71.7429C19.9076 71.7429 19.9435 71.7577 19.9701 71.784C19.983 71.7964 19.9932 71.8113 20.0002 71.8277C20.0072 71.8441 20.0108 71.8617 20.0108 71.8796C20.0108 71.8974 20.0072 71.915 20.0002 71.9314C19.9932 71.9478 19.983 71.9627 19.9701 71.9751L17.1936 75.1395C17.1626 75.1552 17.1267 75.1582 17.0935 75.1478Z" fill="#1A2027"/>
<path d="M24.1887 67.0332C24.1588 67.0423 24.1269 67.0423 24.097 67.0332C24.0706 67.0068 24.0557 66.9709 24.0557 66.9336C24.0557 66.8962 24.0706 66.8604 24.097 66.8339L27.624 62.8472C27.6364 62.8344 27.6513 62.8242 27.6678 62.8172C27.6842 62.8103 27.7019 62.8067 27.7198 62.8067C27.7377 62.8067 27.7554 62.8103 27.7719 62.8172C27.7884 62.8242 27.8033 62.8344 27.8157 62.8472C27.8422 62.8737 27.8571 62.9095 27.8571 62.9469C27.8571 62.9842 27.8422 63.0201 27.8157 63.0465L24.2888 67.0332C24.2567 67.0462 24.2208 67.0462 24.1887 67.0332Z" fill="#1A2027"/>
<path d="M15.6344 72.9053C15.6075 72.9155 15.5779 72.9155 15.551 72.9053C15.527 72.8792 15.5137 72.8451 15.5137 72.8098C15.5137 72.7744 15.527 72.7403 15.551 72.7143C18.2608 69.3172 21.1207 65.9701 24.0556 62.7475C24.0822 62.7211 24.1182 62.7063 24.1557 62.7063C24.1932 62.7063 24.2292 62.7211 24.2558 62.7475C24.2804 62.7749 24.294 62.8104 24.294 62.8472C24.294 62.8839 24.2804 62.9194 24.2558 62.9468C21.3209 66.1445 18.4692 69.4834 15.7678 72.9136C15.7462 72.9214 15.7232 72.9248 15.7002 72.9233C15.6773 72.9219 15.6548 72.9158 15.6344 72.9053Z" fill="#1A2027"/>
<path d="M15.7761 68.5366C15.7492 68.5468 15.7196 68.5468 15.6927 68.5366C15.6787 68.5249 15.6674 68.5103 15.6597 68.4938C15.652 68.4773 15.6479 68.4593 15.6479 68.4411C15.6479 68.4229 15.652 68.4049 15.6597 68.3884C15.6674 68.3719 15.6787 68.3572 15.6927 68.3455C17.2102 66.5432 18.8111 64.7741 20.4537 63.0715C20.4654 63.0575 20.4801 63.0463 20.4966 63.0386C20.5132 63.0308 20.5313 63.0269 20.5496 63.0269C20.5679 63.0269 20.5859 63.0308 20.6024 63.0386C20.619 63.0463 20.6337 63.0575 20.6455 63.0715C20.6583 63.0838 20.6685 63.0987 20.6755 63.1151C20.6825 63.1315 20.6861 63.1491 20.6861 63.167C20.6861 63.1848 20.6825 63.2024 20.6755 63.2188C20.6685 63.2353 20.6583 63.2501 20.6455 63.2625C18.9779 64.9236 17.4103 66.7259 15.8928 68.52C15.876 68.5315 15.8566 68.5389 15.8364 68.5418C15.8162 68.5447 15.7955 68.5429 15.7761 68.5366Z" fill="#1A2027"/>
<path d="M15.7258 64.9319C15.6885 64.9309 15.6528 64.9161 15.6258 64.8904C15.5993 64.8639 15.5845 64.8281 15.5845 64.7907C15.5845 64.7533 15.5993 64.7175 15.6258 64.691L17.7186 62.6727C17.7456 62.6488 17.7808 62.6361 17.8169 62.6371C17.8531 62.6382 17.8875 62.653 17.913 62.6784C17.9386 62.7039 17.9534 62.7381 17.9544 62.7741C17.9555 62.8101 17.9427 62.8452 17.9187 62.8721L15.8176 64.8904C15.7927 64.9143 15.7603 64.929 15.7258 64.9319Z" fill="#1A2027"/>
<path d="M23.2551 75.3721C23.2252 75.3806 23.1934 75.3806 23.1634 75.3721C23.137 75.3456 23.1221 75.3098 23.1221 75.2724C23.1221 75.235 23.137 75.1992 23.1634 75.1727C26.6737 71.0199 30.3174 66.8671 34.0027 62.8222C34.0152 62.8094 34.03 62.7992 34.0465 62.7923C34.063 62.7853 34.0807 62.7817 34.0986 62.7817C34.1165 62.7817 34.1342 62.7853 34.1507 62.7923C34.1671 62.7992 34.182 62.8094 34.1945 62.8222C34.221 62.8487 34.2358 62.8845 34.2358 62.9219C34.2358 62.9593 34.221 62.9951 34.1945 63.0216C30.5175 67.0415 26.8738 71.1943 23.3552 75.3555C23.3253 75.3739 23.2894 75.3799 23.2551 75.3721V75.3721Z" fill="#1A2027"/>
<path d="M26.5234 75.2641C26.4966 75.2743 26.4669 75.2743 26.4401 75.2641C26.4155 75.2367 26.4019 75.2012 26.4019 75.1644C26.4019 75.1277 26.4155 75.0922 26.4401 75.0648C29.8586 70.9618 33.4189 66.8837 37.0292 62.9219C37.0416 62.9091 37.0565 62.8989 37.073 62.892C37.0895 62.885 37.1072 62.8814 37.1251 62.8814C37.143 62.8814 37.1607 62.885 37.1772 62.892C37.1936 62.8989 37.2085 62.9091 37.221 62.9219C37.2352 62.9344 37.2465 62.9497 37.2543 62.9669C37.2621 62.9841 37.2661 63.0027 37.2661 63.0216C37.2661 63.0404 37.2621 63.0591 37.2543 63.0762C37.2465 63.0934 37.2352 63.1088 37.221 63.1212C33.619 67.0747 30.0671 71.1528 26.6485 75.2558C26.63 75.2673 26.6088 75.2741 26.587 75.2755C26.5652 75.2769 26.5434 75.273 26.5234 75.2641Z" fill="#1A2027"/>
<path d="M29.7085 75.3721C29.6791 75.3836 29.6463 75.3836 29.6168 75.3721C29.604 75.3597 29.5937 75.3448 29.5868 75.3284C29.5798 75.312 29.5762 75.2944 29.5762 75.2766C29.5762 75.2587 29.5798 75.2411 29.5868 75.2247C29.5937 75.2083 29.604 75.1934 29.6168 75.181L39.8724 63.1711C39.899 63.1447 39.935 63.1299 39.9725 63.1299C40.01 63.1299 40.046 63.1447 40.0725 63.1711C40.0966 63.1971 40.1099 63.2312 40.1099 63.2666C40.1099 63.302 40.0966 63.336 40.0725 63.3621L29.8169 75.3804C29.7808 75.3891 29.7429 75.3862 29.7085 75.3721V75.3721Z" fill="#1A2027"/>
<path d="M32.7517 75.3721C32.7218 75.3806 32.6899 75.3806 32.66 75.3721C32.6335 75.3456 32.6187 75.3098 32.6187 75.2724C32.6187 75.2351 32.6335 75.1992 32.66 75.1728C36.0535 71.0199 39.5721 66.8671 43.1157 62.8555C43.1283 62.8413 43.1436 62.83 43.1609 62.8222C43.1781 62.8145 43.1969 62.8105 43.2158 62.8105C43.2347 62.8105 43.2534 62.8145 43.2707 62.8222C43.2879 62.83 43.3033 62.8413 43.3158 62.8555C43.3287 62.8679 43.3389 62.8827 43.3459 62.8991C43.3529 62.9155 43.3565 62.9332 43.3565 62.951C43.3565 62.9688 43.3529 62.9865 43.3459 63.0029C43.3389 63.0193 43.3287 63.0341 43.3158 63.0465C39.7722 67.0747 36.262 71.211 32.8684 75.3555C32.8515 75.367 32.8323 75.3744 32.812 75.3773C32.7918 75.3802 32.7712 75.3784 32.7517 75.3721Z" fill="#1A2027"/>
<path d="M35.6618 75.3721C35.6347 75.3804 35.6056 75.3804 35.5784 75.3721C35.552 75.3456 35.5371 75.3098 35.5371 75.2724C35.5371 75.2351 35.552 75.1993 35.5784 75.1728C38.9136 71.0781 42.3488 67.0083 45.8424 63.0715C45.8528 63.0533 45.8672 63.0376 45.8845 63.0256C45.9017 63.0136 45.9214 63.0056 45.9422 63.0022C45.9629 62.9987 45.9842 62.9999 46.0044 63.0057C46.0247 63.0114 46.0433 63.0216 46.0591 63.0354C46.0749 63.0493 46.0875 63.0665 46.0958 63.0857C46.1041 63.105 46.108 63.1258 46.1072 63.1468C46.1064 63.1677 46.1009 63.1882 46.0911 63.2068C46.0814 63.2254 46.0676 63.2416 46.0508 63.2542C42.5573 67.1827 39.1054 71.2525 35.7952 75.3472C35.7773 75.3629 35.7554 75.3734 35.732 75.3778C35.7085 75.3822 35.6843 75.3802 35.6618 75.3721V75.3721Z" fill="#1A2027"/>
<path d="M38.7721 75.2641C38.7398 75.2763 38.7043 75.2763 38.672 75.2641C38.6591 75.2518 38.6489 75.2369 38.6419 75.2205C38.6349 75.2041 38.6313 75.1864 38.6313 75.1686C38.6313 75.1508 38.6349 75.1332 38.6419 75.1168C38.6489 75.1003 38.6591 75.0855 38.672 75.0731C42.2156 71.1861 45.6675 67.1246 48.936 63.005C48.9581 62.9764 48.9907 62.9577 49.0267 62.953C49.0626 62.9483 49.099 62.9581 49.1277 62.9801C49.1565 63.0021 49.1752 63.0346 49.1799 63.0704C49.1846 63.1063 49.1749 63.1425 49.1528 63.1711C45.8843 67.3239 42.4241 71.3688 38.8805 75.2558C38.864 75.2647 38.8458 75.2701 38.8271 75.2715C38.8084 75.2729 38.7897 75.2704 38.7721 75.2641V75.2641Z" fill="#1A2027"/>
<path d="M41.6735 75.1479C41.6461 75.1545 41.6175 75.1545 41.5902 75.1479C41.5637 75.1214 41.5488 75.0855 41.5488 75.0482C41.5488 75.0108 41.5637 74.975 41.5902 74.9485L51.062 63.902C51.0744 63.8892 51.0893 63.879 51.1058 63.8721C51.1223 63.8651 51.14 63.8615 51.1579 63.8615C51.1758 63.8615 51.1935 63.8651 51.21 63.8721C51.2265 63.879 51.2413 63.8892 51.2538 63.902C51.2802 63.9285 51.2951 63.9643 51.2951 64.0017C51.2951 64.039 51.2802 64.0749 51.2538 64.1013L41.7819 75.1479C41.7648 75.1554 41.7464 75.1593 41.7277 75.1593C41.709 75.1593 41.6906 75.1554 41.6735 75.1479V75.1479Z" fill="#1A2027"/>
<path d="M44.6501 75.2641C44.6206 75.2757 44.5879 75.2757 44.5584 75.2641C44.5319 75.2377 44.5171 75.2018 44.5171 75.1645C44.5171 75.1271 44.5319 75.0913 44.5584 75.0648L53.7801 64.1096C53.7922 64.0955 53.8069 64.0838 53.8235 64.0753C53.8401 64.0668 53.8581 64.0616 53.8767 64.0601C53.8953 64.0585 53.914 64.0606 53.9318 64.0663C53.9495 64.072 53.966 64.081 53.9802 64.093C53.9945 64.105 54.0062 64.1197 54.0147 64.1362C54.0233 64.1527 54.0285 64.1708 54.03 64.1893C54.0316 64.2078 54.0294 64.2264 54.0237 64.2441C54.0181 64.2618 54.009 64.2782 53.9969 64.2924L44.7585 75.2143C44.7448 75.2296 44.7282 75.2418 44.7095 75.2504C44.6909 75.259 44.6706 75.2637 44.6501 75.2641Z" fill="#1A2027"/>
<path d="M47.9436 75.2641C47.9136 75.2723 47.882 75.2723 47.8519 75.2641C47.8254 75.2377 47.8105 75.2018 47.8105 75.1645C47.8105 75.1271 47.8254 75.0913 47.8519 75.0648C50.987 71.5432 54.022 67.8389 56.8735 64.0598C56.8845 64.0456 56.8981 64.0338 56.9137 64.0248C56.9293 64.0159 56.9464 64.0101 56.9642 64.0078C56.982 64.0055 57.0001 64.0067 57.0175 64.0113C57.0348 64.016 57.0511 64.024 57.0653 64.0349C57.0795 64.0458 57.0914 64.0594 57.1004 64.0749C57.1094 64.0904 57.1152 64.1075 57.1175 64.1253C57.1198 64.143 57.1186 64.161 57.1139 64.1783C57.1093 64.1956 57.1012 64.2118 57.0903 64.2259C54.2387 68.0133 51.1954 71.701 48.0604 75.2475C48.0435 75.259 48.0242 75.2665 48.0039 75.2694C47.9837 75.2723 47.9631 75.2705 47.9436 75.2641Z" fill="#1A2027"/>
<path d="M50.9288 75.2641C50.9019 75.2744 50.8722 75.2744 50.8453 75.2641C50.8325 75.2518 50.8223 75.2369 50.8153 75.2205C50.8083 75.2041 50.8047 75.1864 50.8047 75.1686C50.8047 75.1508 50.8083 75.1332 50.8153 75.1168C50.8223 75.1003 50.8325 75.0855 50.8453 75.0731C53.6469 71.4103 56.6819 67.8306 59.7502 64.4336C59.7768 64.4072 59.8128 64.3924 59.8503 64.3924C59.8878 64.3924 59.9238 64.4072 59.9504 64.4336C59.975 64.461 59.9886 64.4965 59.9886 64.5332C59.9886 64.57 59.975 64.6055 59.9504 64.6329C56.8487 68.0216 53.8553 71.593 51.0538 75.2475C51.0363 75.2611 51.0155 75.2698 50.9935 75.2727C50.9716 75.2756 50.9492 75.2727 50.9288 75.2641V75.2641Z" fill="#1A2027"/>
<path d="M53.6052 75.1478C53.5778 75.1545 53.5492 75.1545 53.5218 75.1478C53.4953 75.1214 53.4805 75.0855 53.4805 75.0482C53.4805 75.0108 53.4953 74.975 53.5218 74.9485L59.4334 68.0963C59.4458 68.0835 59.4607 68.0733 59.4772 68.0664C59.4936 68.0594 59.5114 68.0558 59.5293 68.0558C59.5472 68.0558 59.5649 68.0594 59.5813 68.0664C59.5978 68.0733 59.6127 68.0835 59.6251 68.0963C59.6516 68.1228 59.6665 68.1586 59.6665 68.196C59.6665 68.2334 59.6516 68.2692 59.6251 68.2957L53.7135 75.1478C53.6965 75.1554 53.678 75.1593 53.6593 75.1593C53.6407 75.1593 53.6222 75.1554 53.6052 75.1478V75.1478Z" fill="#1A2027"/>
<path d="M56.198 75.2641C56.1684 75.2749 56.1359 75.2749 56.1063 75.2641C56.0922 75.2524 56.081 75.2378 56.0732 75.2213C56.0655 75.2048 56.0615 75.1868 56.0615 75.1686C56.0615 75.1504 56.0655 75.1324 56.0732 75.1159C56.081 75.0994 56.0922 75.0848 56.1063 75.0731L59.3414 71.485C59.3675 71.4611 59.4017 71.4478 59.4372 71.4478C59.4728 71.4478 59.507 71.4611 59.5332 71.485C59.5596 71.5115 59.5745 71.5473 59.5745 71.5847C59.5745 71.6221 59.5596 71.6579 59.5332 71.6844L56.2814 75.2143C56.2599 75.2396 56.2306 75.2572 56.198 75.2641V75.2641Z" fill="#1A2027"/>
<path d="M58.9748 75.2641C58.9448 75.2722 58.9131 75.2722 58.8831 75.2641C58.8566 75.2377 58.8418 75.2018 58.8418 75.1645C58.8418 75.1271 58.8566 75.0913 58.8831 75.0648L59.7169 74.1346C59.7286 74.1206 59.7433 74.1094 59.7599 74.1017C59.7765 74.094 59.7945 74.09 59.8128 74.09C59.8311 74.09 59.8491 74.094 59.8657 74.1017C59.8823 74.1094 59.8969 74.1206 59.9087 74.1346C59.9215 74.147 59.9318 74.1618 59.9387 74.1782C59.9457 74.1946 59.9493 74.2122 59.9493 74.2301C59.9493 74.2479 59.9457 74.2655 59.9387 74.2819C59.9318 74.2984 59.9215 74.3132 59.9087 74.3256L59.0749 75.2558C59.0439 75.2715 59.008 75.2744 58.9748 75.2641V75.2641Z" fill="#1A2027"/>
<path d="M70.7393 60.1728L79.5107 68.7691C81.0198 70.3056 82.6149 71.7559 84.2884 73.113C85.1164 73.8934 86.1808 74.3783 87.315 74.4917C87.8997 74.4881 88.4607 74.2613 88.8826 73.8581C89.3045 73.4548 89.5552 72.9057 89.5829 72.3239C89.4674 71.3852 88.9998 70.5248 88.2738 69.9153C83.6102 65.026 78.7492 60.3943 73.6909 56.02C72.7654 57.3738 71.8399 58.7276 70.7393 60.1728Z" fill="white"/>
<path d="M87.315 74.9153C86.0867 74.8012 84.9313 74.2841 84.0299 73.4452C82.3461 72.076 80.74 70.6147 79.2189 69.0681L70.4558 60.4718C70.3889 60.396 70.3521 60.2986 70.3521 60.1977C70.3521 60.0968 70.3889 59.9994 70.4558 59.9236C71.548 58.4784 72.4902 57.108 73.3991 55.7708C73.4322 55.7217 73.4753 55.6801 73.5255 55.6486C73.5758 55.6172 73.6321 55.5965 73.6909 55.588C73.7491 55.5809 73.8081 55.5861 73.8641 55.6033C73.9201 55.6205 73.9719 55.6492 74.0161 55.6877C79.0188 60.0399 83.9798 64.7243 88.624 69.608C89.4258 70.295 89.9355 71.26 90.0498 72.3073C90.0474 72.6356 89.9798 72.9601 89.851 73.2623C89.7222 73.5645 89.5348 73.8383 89.2994 74.0681C89.0408 74.3323 88.7324 74.5431 88.3919 74.6885C88.0514 74.8339 87.6854 74.9109 87.315 74.9153V74.9153ZM71.2896 60.1312L79.8026 68.4784C81.3004 70.001 82.8814 71.4401 84.5385 72.789C85.2977 73.5043 86.2687 73.9559 87.3067 74.0764C87.8129 74.0635 88.2943 73.855 88.6491 73.495C88.8057 73.3422 88.9304 73.16 89.0163 72.9591C89.1021 72.7581 89.1473 72.5423 89.1493 72.3239C89.0325 71.4917 88.6071 70.7332 87.957 70.1977C83.4379 65.4551 78.6686 60.8954 73.7826 56.6429C73.0072 57.7641 72.2067 58.9352 71.2896 60.1312Z" fill="#1A2027"/>
<path d="M59.3248 28.4867C55.7187 28.4883 52.1939 29.5551 49.1963 31.552C46.1986 33.5489 43.8627 36.3864 42.4838 39.7057C41.105 43.0249 40.745 46.6769 41.4495 50.2C42.1541 53.723 43.8915 56.9588 46.442 59.4983C48.9925 62.0378 52.2417 63.767 55.7787 64.4672C59.3158 65.1674 62.9818 64.8072 66.3133 63.4321C69.6449 62.0571 72.4922 59.7289 74.4956 56.7419C76.4989 53.755 77.5682 50.2434 77.5682 46.6512C77.5682 44.2651 77.0962 41.9024 76.1793 39.698C75.2624 37.4936 73.9185 35.4908 72.2243 33.804C70.5302 32.1172 68.5189 30.7794 66.3056 29.867C64.0923 28.9546 61.7202 28.4856 59.3248 28.4867V28.4867ZM59.3248 60.4468C56.5861 60.4452 53.9092 59.6347 51.6328 58.1178C49.3564 56.6009 47.5826 54.4458 46.5357 51.9248C45.4888 49.4038 45.2157 46.6302 45.751 43.9547C46.2863 41.2791 47.606 38.8217 49.5432 36.8932C51.4804 34.9647 53.9481 33.6516 56.6344 33.1199C59.3206 32.5883 62.1048 32.862 64.635 33.9064C67.1651 34.9508 69.3275 36.719 70.8489 38.9875C72.3704 41.2561 73.1824 43.923 73.1824 46.6512C73.1824 48.4635 72.8239 50.2581 72.1274 51.9324C71.4309 53.6068 70.41 55.128 69.1231 56.4091C67.8362 57.6903 66.3085 58.7063 64.6273 59.3991C62.946 60.0919 61.1443 60.4479 59.3248 60.4468V60.4468ZM59.3248 60.4468C56.5861 60.4452 53.9092 59.6347 51.6328 58.1178C49.3564 56.6009 47.5826 54.4458 46.5357 51.9248C45.4888 49.4038 45.2157 46.6302 45.751 43.9547C46.2863 41.2791 47.606 38.8217 49.5432 36.8932C51.4804 34.9647 53.9481 33.6516 56.6344 33.1199C59.3206 32.5883 62.1048 32.862 64.635 33.9064C67.1651 34.9508 69.3275 36.719 70.8489 38.9875C72.3704 41.2561 73.1824 43.923 73.1824 46.6512C73.1824 48.4635 72.8239 50.2581 72.1274 51.9324C71.4309 53.6068 70.41 55.128 69.1231 56.4091C67.8362 57.6903 66.3085 58.7063 64.6273 59.3991C62.946 60.0919 61.1443 60.4479 59.3248 60.4468V60.4468Z" fill="white"/>
<path d="M59.3249 65.2309C55.6329 65.2358 52.0223 64.1496 48.9502 62.1098C45.878 60.0699 43.4824 57.1681 42.0665 53.7715C40.6505 50.375 40.2779 46.6363 40.9958 43.0287C41.7136 39.4211 43.4897 36.1068 46.0992 33.505C48.7087 30.9033 52.0344 29.1311 55.6554 28.4128C59.2763 27.6945 63.0298 28.0623 66.4408 29.4697C69.8519 30.8772 72.7671 33.2609 74.8176 36.3193C76.8681 39.3778 77.9618 42.9734 77.9601 46.6512C77.9535 51.5739 75.9886 56.2934 72.4957 59.7759C69.0028 63.2583 64.2668 65.2199 59.3249 65.2309V65.2309ZM59.3249 28.902C55.8001 28.8987 52.3535 29.9369 49.4212 31.8852C46.4888 33.8335 44.2024 36.6044 42.8512 39.8473C41.5001 43.0903 41.1449 46.6595 41.8305 50.1036C42.5161 53.5477 44.2118 56.7119 46.703 59.1958C49.1943 61.6797 52.3691 63.3718 55.8259 64.058C59.2828 64.7443 62.8663 64.3937 66.1231 63.0508C69.3799 61.7079 72.1636 59.433 74.1223 56.5138C76.0809 53.5946 77.1263 50.1623 77.1263 46.6512C77.1197 41.9487 75.2426 37.4404 71.9061 34.1137C68.5696 30.787 64.0456 28.913 59.3249 28.902V28.902ZM59.3249 60.8621C56.5013 60.8621 53.7411 60.028 51.3935 58.4652C49.0459 56.9024 47.2163 54.6811 46.1362 52.0824C45.056 49.4837 44.7738 46.6242 45.3253 43.8657C45.8767 41.1072 47.2371 38.5736 49.2342 36.5854C51.2314 34.5971 53.7756 33.2435 56.5452 32.6958C59.3147 32.1481 62.1851 32.4308 64.7933 33.5083C67.4015 34.5858 69.6303 36.4096 71.1978 38.7491C72.7653 41.0885 73.6011 43.8385 73.5994 46.6512C73.595 50.4202 72.0894 54.0335 69.4131 56.6979C66.7368 59.3622 63.1086 60.8599 59.3249 60.8621ZM45.8925 46.6512C45.8925 49.2975 46.6803 51.8845 48.1563 54.0849C49.6322 56.2853 51.7301 58.0003 54.1846 59.013C56.639 60.0258 59.3398 60.2907 61.9454 59.7744C64.551 59.2582 66.9445 57.9838 68.823 56.1125C70.7016 54.2412 71.9809 51.8571 72.4991 49.2615C73.0174 46.666 72.7514 43.9756 71.7348 41.5307C70.7181 39.0857 68.9964 36.996 66.7875 35.5257C64.5786 34.0555 61.9816 33.2708 59.3249 33.2708C55.7638 33.2751 52.3497 34.6863 49.8316 37.1946C47.3135 39.703 45.8969 43.1038 45.8925 46.6512V46.6512Z" fill="#1A2027"/>
<path d="M73.0905 60.696C73.0734 60.6913 73.0576 60.6832 73.0437 60.6722C73.0298 60.6612 73.0182 60.6476 73.0097 60.6321C73.0011 60.6167 72.9958 60.5997 72.9939 60.5821C72.992 60.5646 72.9937 60.5468 72.9988 60.5299L73.324 59.4087C73.3278 59.3909 73.3353 59.3742 73.3459 59.3594C73.3565 59.3447 73.3701 59.3322 73.3857 59.3229C73.4013 59.3136 73.4187 59.3075 73.4368 59.3051C73.4549 59.3027 73.4732 59.304 73.4908 59.309C73.5262 59.3205 73.5561 59.3447 73.5746 59.377C73.5931 59.4092 73.5988 59.4472 73.5908 59.4834L73.2656 60.6047C73.2541 60.6396 73.2294 60.6687 73.1967 60.6858C73.164 60.7028 73.1259 60.7065 73.0905 60.696Z" fill="#1A2027"/>
<path d="M74.6248 62.6561C74.5886 62.65 74.5563 62.6301 74.5345 62.6007C74.5127 62.5713 74.5032 62.5346 74.5081 62.4983C74.6748 61.1943 74.8833 59.8737 75.1168 58.5697C75.1248 58.5335 75.1467 58.5019 75.1779 58.4817C75.2091 58.4615 75.247 58.4544 75.2835 58.4618C75.3012 58.4648 75.3181 58.4713 75.3332 58.4809C75.3482 58.4905 75.3612 58.503 75.3713 58.5178C75.3814 58.5325 75.3885 58.5491 75.392 58.5666C75.3956 58.5841 75.3955 58.6021 75.3919 58.6196C75.1584 59.9153 74.95 61.2276 74.7832 62.5315C74.7812 62.5501 74.7754 62.5681 74.7663 62.5845C74.7572 62.6009 74.7449 62.6152 74.7302 62.6268C74.7154 62.6384 74.6985 62.647 74.6804 62.652C74.6624 62.657 74.6434 62.6584 74.6248 62.6561V62.6561Z" fill="#1A2027"/>
<path d="M76.6179 64.5582C76.5809 64.5562 76.546 64.5406 76.5198 64.5146C76.4937 64.4885 76.4781 64.4538 76.4761 64.417C76.4761 63.7608 76.5762 62.6645 76.6679 61.6927C76.7262 61.103 76.7679 60.5964 76.7846 60.2724C76.7856 60.2542 76.7903 60.2364 76.7986 60.22C76.8068 60.2037 76.8183 60.1893 76.8324 60.1776C76.8465 60.1659 76.8629 60.1572 76.8805 60.1521C76.898 60.147 76.9165 60.1455 76.9347 60.1479C76.9708 60.15 77.0048 60.1658 77.0296 60.192C77.0544 60.2183 77.0681 60.253 77.0681 60.2891C77.0681 60.613 77.0014 61.1196 76.943 61.7259C76.8597 62.6811 76.7596 63.7774 76.7596 64.417C76.7576 64.4538 76.742 64.4885 76.7159 64.5146C76.6897 64.5406 76.6548 64.5562 76.6179 64.5582V64.5582Z" fill="#1A2027"/>
<path d="M78.6603 66.4103C78.6241 66.4104 78.5893 66.3966 78.5629 66.3719C78.5366 66.3472 78.5207 66.3134 78.5186 66.2774L78.4102 61.6345C78.4102 61.5971 78.4251 61.5612 78.4517 61.5347C78.4783 61.5082 78.5143 61.4933 78.5519 61.4933C78.5881 61.4933 78.6229 61.507 78.6493 61.5317C78.6756 61.5564 78.6915 61.5903 78.6937 61.6262L78.7937 66.2691C78.7949 66.2872 78.7923 66.3054 78.7861 66.3225C78.7799 66.3396 78.7702 66.3552 78.7577 66.3685C78.7452 66.3817 78.7301 66.3922 78.7134 66.3994C78.6966 66.4066 78.6786 66.4103 78.6603 66.4103Z" fill="#1A2027"/>
<path d="M80.603 68.4784C80.5668 68.4785 80.532 68.4648 80.5056 68.4401C80.4793 68.4153 80.4634 68.3815 80.4612 68.3455L80.2778 63.4867C80.2778 63.4507 80.2916 63.416 80.3164 63.3897C80.3412 63.3635 80.3751 63.3477 80.4112 63.3455C80.4294 63.3444 80.4477 63.347 80.4649 63.3532C80.482 63.3593 80.4977 63.3689 80.511 63.3814C80.5242 63.3939 80.5348 63.4089 80.5421 63.4256C80.5493 63.4423 80.553 63.4603 80.5529 63.4784L80.7364 68.3372C80.7375 68.3554 80.7349 68.3735 80.7287 68.3906C80.7225 68.4077 80.7129 68.4234 80.7004 68.4366C80.6879 68.4498 80.6728 68.4604 80.6561 68.4676C80.6393 68.4748 80.6212 68.4785 80.603 68.4784Z" fill="#1A2027"/>
<path d="M82.5711 70.2143C82.5357 70.2143 82.5017 70.2003 82.4767 70.1754C82.4517 70.1504 82.4376 70.1166 82.4376 70.0814L82.1875 65.5382C82.1874 65.5021 82.2012 65.4674 82.226 65.4412C82.2508 65.4149 82.2848 65.3991 82.3209 65.397C82.3391 65.3947 82.3575 65.3961 82.3751 65.4013C82.3927 65.4064 82.4091 65.415 82.4232 65.4267C82.4373 65.4384 82.4488 65.4529 82.457 65.4692C82.4652 65.4855 82.47 65.5033 82.471 65.5216L82.7128 70.0648C82.7139 70.0833 82.7114 70.1019 82.7053 70.1195C82.6992 70.137 82.6896 70.1532 82.6772 70.1671C82.6648 70.181 82.6498 70.1923 82.633 70.2004C82.6163 70.2085 82.598 70.2132 82.5794 70.2143H82.5711Z" fill="#1A2027"/>
<path d="M84.5306 71.809C84.4957 71.8092 84.462 71.7966 84.4358 71.7736C84.4096 71.7507 84.3929 71.7189 84.3888 71.6844L84.0469 67.2409C84.0446 67.2221 84.0463 67.203 84.0519 67.1849C84.0575 67.1668 84.067 67.1501 84.0796 67.136C84.0923 67.1218 84.1078 67.1105 84.1252 67.1028C84.1425 67.0951 84.1614 67.0912 84.1804 67.0914C84.2167 67.089 84.2524 67.1006 84.2804 67.1238C84.3083 67.147 84.3263 67.18 84.3305 67.2159L84.6723 71.6345C84.6725 71.6715 84.659 71.7072 84.6344 71.7348C84.6097 71.7624 84.5758 71.78 84.5389 71.7841L84.5306 71.809Z" fill="#1A2027"/>
<path d="M86.3811 73.2458C86.3462 73.2461 86.3125 73.2335 86.2863 73.2105C86.2602 73.1875 86.2435 73.1558 86.2394 73.1213L85.8392 69.2425C85.8368 69.2064 85.8484 69.1707 85.8717 69.1429C85.895 69.115 85.9281 69.0972 85.9642 69.093C86.0014 69.0904 86.0383 69.1018 86.0676 69.1248C86.0969 69.1479 86.1165 69.1809 86.1226 69.2176L86.5229 73.0963C86.5253 73.1325 86.5136 73.1681 86.4903 73.196C86.467 73.2238 86.4339 73.2416 86.3978 73.2458H86.3811Z" fill="#1A2027"/>
<path d="M88.1906 73.0548C88.1579 73.0551 88.1263 73.0434 88.1017 73.0219C88.0771 73.0005 88.0612 72.9708 88.0572 72.9385L87.7737 71.2109C87.7689 71.1747 87.7783 71.138 87.8001 71.1086C87.8218 71.0791 87.8542 71.0593 87.8904 71.0531C87.908 71.0482 87.9265 71.0472 87.9446 71.0501C87.9627 71.0531 87.9799 71.0599 87.995 71.0702C88.0101 71.0805 88.0227 71.094 88.032 71.1097C88.0413 71.1254 88.0471 71.143 88.0488 71.1611L88.3323 72.897C88.3359 72.9151 88.3357 72.9337 88.3316 72.9517C88.3276 72.9697 88.3198 72.9867 88.3088 73.0015C88.2978 73.0163 88.2839 73.0287 88.2678 73.0379C88.2518 73.0471 88.234 73.0528 88.2156 73.0548H88.1906Z" fill="#1A2027"/>
<g opacity="0.13">
<path d="M72.232 51.0448C71.8372 51.5006 71.4829 51.9897 71.1731 52.5066C70.6927 53.088 70.1806 53.6426 69.6389 54.1678C69.1803 54.5747 68.7384 54.9319 68.2882 55.2724C68.2043 55.2846 68.1244 55.3158 68.0547 55.3638C66.0388 56.8557 63.6741 57.8105 61.1843 58.1379C59.5008 58.5063 57.7547 58.4836 56.0815 58.0714C54.6913 57.7478 53.3883 57.1271 52.2627 56.2525C51.1004 55.3676 50.0356 54.3626 49.086 53.2541V53.2541C48.3574 52.2234 47.7948 51.0856 47.4184 49.882C47.1933 49.2674 47.0265 48.6445 46.8431 48.0216C46.616 47.4216 46.5002 46.7856 46.5012 46.1445C46.3345 45.6794 46.1843 45.206 46.0426 44.7325C45.9074 44.6694 45.7577 44.6436 45.6091 44.6578C45.3673 46.5271 45.3673 48.4197 45.6091 50.289C45.9872 52.1779 46.8488 53.9374 48.1104 55.397C48.914 56.2486 49.8024 57.0167 50.7619 57.6894C51.9998 58.6288 53.3748 59.3739 54.8391 59.8987C55.66 60.1071 56.4966 60.2488 57.3405 60.3222V60.3222C58.25 60.473 59.1763 60.4954 60.092 60.3887C60.8039 60.2948 61.5067 60.142 62.1932 59.9319C63.6378 59.6092 65.0377 59.1127 66.3621 58.4535C66.6961 58.2552 67.0189 58.0389 67.3293 57.8056C68.8584 56.884 70.26 55.7671 71.4982 54.4834C71.7234 54.0266 71.9402 53.5697 72.1403 53.1046L72.8907 51.0199C72.7877 50.9684 72.6733 50.9437 72.5581 50.9481C72.4429 50.9524 72.3308 50.9857 72.232 51.0448Z" fill="#1A2027"/>
</g>
<g opacity="0.13">
<path d="M75.2087 56.9751C74.5083 56.7758 74.0497 57.2575 73.7078 57.8057L73.6578 57.8638C73.1046 58.4214 72.511 58.9377 71.8818 59.4087V59.4087C71.6901 59.5499 71.4482 59.6412 71.3232 59.8572C71.1569 60.0831 71.0732 60.3588 71.0857 60.6387C71.0983 60.9185 71.2064 61.1857 71.3922 61.396C71.578 61.6062 71.8303 61.747 72.1074 61.7949C72.3844 61.8428 72.6696 61.7951 72.9157 61.6595C73.706 61.2146 74.3935 60.609 74.9335 59.8821C75.2995 59.5083 75.6238 59.0962 75.9007 58.6528C75.9903 58.5015 76.0434 58.3315 76.0559 58.1562C76.0685 57.981 76.0402 57.8052 75.9731 57.6427C75.9061 57.4802 75.8022 57.3353 75.6696 57.2195C75.5369 57.1037 75.3792 57.02 75.2087 56.9751V56.9751Z" fill="#1A2027"/>
</g>
<path d="M55.0477 43.4452L52.8799 45.4552L58.7998 52.0083L65.3367 42.5233L62.9104 40.6047L58.3495 47.0166L55.0477 43.4452Z" fill="rgba(147, 51, 234, 1)"/>
<path d="M58.7831 52.4236C58.7246 52.423 58.667 52.41 58.6138 52.3857C58.5607 52.3614 58.5132 52.3262 58.4746 52.2824L52.563 45.7376C52.5242 45.6997 52.4934 45.6545 52.4723 45.6045C52.4513 45.5546 52.4404 45.501 52.4404 45.4469C52.4404 45.3927 52.4513 45.3391 52.4723 45.2892C52.4934 45.2393 52.5242 45.1941 52.563 45.1562L54.7309 43.1379C54.8132 43.0636 54.92 43.0222 55.0311 43.0216C55.1432 43.0284 55.2481 43.0792 55.3229 43.1628L58.2745 46.3522L62.5352 40.3638C62.5679 40.3169 62.6099 40.2772 62.6587 40.2472C62.7075 40.2172 62.7619 40.1975 62.8187 40.1894C62.9338 40.1743 63.0502 40.204 63.1438 40.2725L65.5618 42.1994C65.645 42.2636 65.7001 42.3573 65.7156 42.4609C65.7312 42.5646 65.7059 42.6702 65.6452 42.7558L59.1083 52.2409C59.0729 52.2934 59.026 52.3371 58.9711 52.3688C58.9162 52.4004 58.8548 52.4192 58.7915 52.4236H58.7831ZM53.4552 45.4801L58.7414 51.2941L64.7614 42.5648L62.9938 41.1612L58.6831 47.216C58.646 47.2661 58.5985 47.3076 58.5438 47.3377C58.4891 47.3678 58.4285 47.3858 58.3662 47.3904C58.3041 47.395 58.2418 47.3854 58.184 47.3624C58.1262 47.3394 58.0744 47.3035 58.0327 47.2575L55.0227 43.9934L53.4552 45.4801Z" fill="#1A2027"/>
<g opacity="0.13">
<path d="M60.2922 64.907C59.1821 64.9911 58.0671 64.9911 56.957 64.907C54.86 64.5446 52.8477 63.8014 51.0204 62.7143C50.5526 62.4315 50.1041 62.1179 49.678 61.7758C49.3779 61.51 49.0777 61.1944 48.6524 61.2193C48.4483 61.2227 48.2495 61.2853 48.0805 61.3995C47.9115 61.5137 47.7796 61.6745 47.7008 61.8622C47.6221 62.0499 47.6 62.2564 47.6372 62.4564C47.6744 62.6564 47.7694 62.8413 47.9104 62.9884C48.9902 63.9179 50.2009 64.6846 51.504 65.2641C53.6176 66.3052 55.9603 66.7994 58.3161 66.701C58.9261 66.7009 59.5357 66.6677 60.1421 66.6013C60.2753 66.6175 60.4105 66.6034 60.5376 66.5603C60.6646 66.5171 60.7802 66.446 60.8758 66.3522C61.0019 66.2381 61.09 66.0884 61.1281 65.923C61.1661 65.7577 61.1525 65.5846 61.0889 65.4272C61.0254 65.2699 60.9149 65.1356 60.7725 65.0426C60.63 64.9496 60.4624 64.9023 60.2922 64.907Z" fill="#1A2027"/>
</g>
</g>
<defs>
<clipPath id="clip0_107_9545">
<rect width="76" height="55" fill="white" transform="translate(14 22)"/>
</clipPath>
</defs>
</svg>
